<svg version="1.1" id="Layer_1" xmlns="http://www.w3.org/2000/svg" xmlns:xlink="http://www.w3.org/1999/xlink" x="0px" y="0px"
	 width="100%" viewBox="0 0 196 66" enable-background="new 0 0 196 66" xml:space="preserve">
<path fill="#FEFEFE" opacity="1.000000" stroke="none" 
	d="
M197.000000,23.000000 
	C197.000000,37.627441 197.000000,52.254883 197.000000,67.000000 
	C157.312515,67.000000 117.624916,67.000000 77.533333,66.609230 
	C82.510689,64.487808 88.104134,63.228184 93.226128,60.921623 
	C102.003006,56.969185 110.485100,52.362106 119.363739,47.940807 
	C120.084564,47.505634 120.532616,47.159557 121.348801,46.846092 
	C124.519165,44.962082 127.321404,43.045464 130.492676,41.088821 
	C131.945801,40.381344 133.029892,39.713886 134.426117,39.009346 
	C135.149017,38.898727 135.559830,38.825195 136.333542,38.812290 
	C151.395660,31.420898 166.364899,24.751392 183.329803,22.967010 
	C184.111969,22.969315 184.559555,22.899769 185.401001,22.908403 
	C186.861542,22.935532 187.928192,22.884480 189.434174,22.906307 
	C192.248978,22.986122 194.624496,22.993061 197.000000,23.000000 
z"/>
<path fill="#FFFFFF" opacity="1.000000" stroke="none" 
	d="
M1.000000,32.000000 
	C1.000000,21.693970 1.000000,11.387939 1.000000,1.000000 
	C45.687531,1.000000 90.375107,1.000000 135.441315,1.321239 
	C135.199875,2.392476 134.579803,3.142473 133.565033,3.947607 
	C132.111679,4.062253 131.053055,4.121763 129.737488,4.145700 
	C129.376984,4.403540 129.273392,4.696953 128.982880,5.322888 
	C127.491043,6.422084 126.186142,7.188757 124.433746,7.973894 
	C116.082489,7.544366 108.870110,10.426293 101.600380,12.828142 
	C95.923431,14.703751 89.991394,16.353291 84.897110,19.339193 
	C72.062050,26.862190 58.696888,32.485924 43.813572,34.180084 
	C43.138813,34.256897 42.574863,35.307140 41.536087,35.962852 
	C38.376640,36.345413 35.647148,36.854305 32.902779,36.954075 
	C27.278225,37.158550 21.645697,37.143551 15.764989,37.159691 
	C15.344390,37.132946 15.175252,37.165424 14.671177,37.013626 
	C10.907838,35.599239 7.479438,34.369141 3.854371,32.854118 
	C2.771803,32.379463 1.885902,32.189732 1.000000,32.000000 
z"/>
<path fill="#FAFDFB" opacity="1.000000" stroke="none" 
	d="
M1.000000,32.468658 
	C1.885902,32.189732 2.771803,32.379463 3.863994,33.199062 
	C8.901601,38.685600 13.732919,43.542274 18.582306,48.402512 
	C18.600378,48.406075 18.627796,48.429447 18.734022,48.740742 
	C21.893970,51.038780 24.947693,53.025524 28.185745,55.179089 
	C28.370077,55.345905 28.840734,55.506241 28.954811,55.705544 
	C29.310207,56.136379 29.594814,56.219242 30.156185,56.367088 
	C31.731991,57.150036 33.074318,57.719330 34.591148,58.555714 
	C35.524998,59.085766 36.284348,59.348724 37.368824,59.800835 
	C43.374737,61.692688 49.070572,63.348137 54.720409,65.147980 
	C55.588810,65.424622 56.245434,66.366035 57.000000,67.000000 
	C38.423534,67.000000 19.847067,67.000000 1.000000,67.000000 
	C1.000000,55.647205 1.000000,44.292259 1.000000,32.468658 
z"/>
<path fill="#487854" opacity="1.000000" stroke="none" 
	d="
M34.416645,58.288624 
	C33.074318,57.719330 31.731991,57.150036 30.312561,56.097870 
	C30.799706,55.403645 31.363951,55.192291 32.312943,54.988007 
	C33.464973,54.998867 34.232250,55.002651 35.230881,55.277222 
	C36.636230,55.702042 37.810226,55.856075 39.202400,56.274296 
	C41.862209,58.098778 44.312286,59.521744 47.351643,57.062115 
	C50.129848,57.415646 52.561024,57.711861 55.113789,58.273705 
	C55.823330,59.027538 56.411282,59.515747 57.224411,60.276421 
	C59.491810,60.802345 61.614822,60.783886 63.560574,61.362019 
	C68.688156,62.885563 74.365051,58.114552 79.183357,62.784847 
	C79.324059,62.921219 79.803841,62.707771 80.343880,62.623260 
	C80.775223,61.559082 81.245987,60.397652 81.575333,59.585125 
	C83.861610,59.450687 86.025841,59.883667 87.627167,59.126366 
	C92.861481,56.650948 97.890747,53.741917 103.324219,51.141335 
	C105.435143,50.856915 107.220711,50.430798 109.398849,49.992626 
	C112.891266,49.330349 115.991112,48.680126 119.090965,48.029900 
	C110.485100,52.362106 102.003006,56.969185 93.226128,60.921623 
	C88.104134,63.228184 82.510689,64.487808 77.064674,66.609230 
	C70.645599,67.000000 64.291206,67.000000 57.468403,67.000000 
	C56.245434,66.366035 55.588810,65.424622 54.720409,65.147980 
	C49.070572,63.348137 43.374737,61.692688 37.267036,59.476746 
	C36.032291,58.738544 35.224468,58.513584 34.416645,58.288624 
z"/>
<path fill="#FBFCFB" opacity="1.000000" stroke="none" 
	d="
M173.000000,0.999998 
	C180.915298,1.000000 188.830582,1.000000 197.000000,1.000000 
	C197.000000,6.684357 197.000000,12.372470 196.670593,18.456175 
	C194.280334,17.061316 192.219467,15.270864 189.924683,13.286994 
	C188.104904,11.855625 186.519043,10.617676 184.952744,9.005293 
	C184.708832,7.937850 184.445328,7.244840 184.181824,6.551829 
	C183.759338,7.108460 183.336853,7.665091 182.557251,8.148617 
	C180.824661,7.678776 179.449173,7.282042 178.043976,6.930809 
	C178.014282,6.976310 178.107208,6.919967 177.982803,6.641753 
	C177.243423,5.832782 176.628448,5.302026 175.944763,4.449158 
	C174.917389,3.084696 173.958694,2.042345 173.000000,0.999998 
z"/>
<path fill="#507B60" opacity="1.000000" stroke="none" 
	d="
M133.959732,3.892473 
	C134.579803,3.142473 135.199875,2.392476 135.909973,1.321239 
	C145.354233,1.000000 154.708450,1.000000 164.685944,1.335488 
	C168.217178,2.757872 171.125122,3.844768 173.916840,5.165018 
	C173.524231,5.601692 173.247849,5.805013 172.679413,6.027927 
	C171.928268,6.360595 171.469177,6.673669 170.678452,6.851238 
	C167.896866,6.811896 165.446915,6.908060 162.631836,6.965299 
	C160.844040,6.622350 159.421387,6.318326 157.623932,6.010015 
	C156.499573,6.004844 155.749985,6.003959 154.656281,5.946301 
	C152.540512,5.590462 150.768875,5.291396 148.622620,4.992711 
	C147.498764,4.996373 146.749527,4.999655 145.635178,4.841417 
	C142.846008,4.458411 140.421951,4.236923 137.737747,4.118013 
	C136.985580,4.485246 136.493546,4.749903 135.691650,4.983196 
	C134.907791,4.598714 134.433762,4.245595 133.959732,3.892473 
z"/>
<path fill="#578064" opacity="1.000000" stroke="none" 
	d="
M190.158600,13.480412 
	C192.219467,15.270864 194.280334,17.061316 196.670593,18.925884 
	C197.000000,20.066669 197.000000,21.133339 197.000000,22.600004 
	C194.624496,22.993061 192.248978,22.986122 189.483459,22.558475 
	C189.448502,19.251980 189.803543,16.366196 190.158600,13.480412 
z"/>
<path fill="#F0FBF5" opacity="1.000000" stroke="none" 
	d="
M174.033081,4.931664 
	C171.125122,3.844768 168.217178,2.757872 165.154602,1.335488 
	C167.370560,1.000000 169.741104,1.000000 172.555832,0.999998 
	C173.958694,2.042345 174.917389,3.084696 175.681427,4.533954 
	C175.317795,5.014690 175.148788,5.088519 174.749664,5.077785 
	C174.519547,4.993223 174.033081,4.931664 174.033081,4.931664 
z"/>
<path fill="#3E7750" opacity="1.000000" stroke="none" 
	d="
M155.000397,6.003074 
	C155.749985,6.003959 156.499573,6.004844 157.659378,6.361935 
	C157.647690,10.287050 157.738159,14.015237 156.689270,17.389242 
	C154.912369,23.105169 154.183701,23.101160 148.661423,20.499275 
	C147.117615,19.771894 145.268082,19.693344 143.558807,19.317152 
	C143.312088,19.833929 143.065384,20.350706 142.818665,20.867483 
	C144.374008,21.658697 145.929352,22.449911 147.885757,23.445150 
	C147.577530,24.518881 147.135452,26.058868 146.693359,27.598856 
	C147.032822,27.816216 147.372284,28.033573 147.711746,28.250933 
	C148.833893,27.044937 149.956055,25.838943 151.089767,24.620533 
	C151.997406,25.049185 153.003647,25.524393 153.972672,26.362331 
	C152.628052,31.318462 148.639359,31.340649 145.000870,31.571459 
	C143.247864,24.241653 139.916611,30.878153 137.539978,29.317753 
	C137.450455,29.885056 137.360931,30.452358 137.271408,31.019661 
	C138.854324,31.349270 140.437225,31.678879 141.871307,32.330162 
	C140.780701,33.437649 139.745529,34.137215 138.920410,35.030750 
	C137.849670,36.190281 136.946136,37.504208 135.970627,38.751667 
	C135.559830,38.825195 135.149017,38.898727 134.015854,38.995865 
	C132.199203,39.018490 131.104904,39.017517 130.012207,38.635429 
	C134.285065,33.519955 130.899277,27.672646 132.463272,22.236876 
	C129.190109,23.830679 126.666801,25.945482 123.965286,27.800800 
	C123.262856,28.283211 122.003929,27.955330 120.966492,27.646622 
	C120.830521,26.202816 120.295181,24.901247 120.704666,24.059069 
	C122.179260,21.026283 124.037743,18.182074 125.585136,15.180996 
	C125.863579,14.640988 125.587173,13.519400 125.168076,12.971342 
	C123.973114,11.408689 116.703362,12.217929 114.704834,14.125040 
	C113.606445,14.500583 112.802917,14.750555 111.605820,15.001434 
	C110.164734,15.554881 108.534409,15.858642 108.173447,16.704248 
	C106.816841,19.882303 105.186211,20.344866 102.534309,18.143049 
	C101.809525,17.541281 100.661400,17.449400 98.818436,16.819769 
	C100.034836,21.073940 108.011070,20.756645 103.814751,26.941605 
	C102.132111,21.949808 98.911186,23.443596 95.653954,24.910324 
	C95.492813,23.437628 95.367920,22.296144 95.120605,20.035789 
	C91.495071,22.229172 88.581841,23.991627 85.147995,26.069046 
	C85.048767,26.026253 83.961182,25.557199 82.127533,24.766384 
	C82.797173,26.524055 83.157410,27.469604 83.515594,28.409771 
	C77.813347,30.395273 72.363266,32.292973 67.103722,34.124325 
	C67.473518,36.826069 67.708237,38.540913 67.893623,39.895306 
	C64.754601,40.104794 62.086365,40.282864 59.418125,40.460934 
	C57.710777,38.804886 55.515007,38.167015 53.824886,36.870163 
	C49.743309,33.738308 45.959934,38.075203 42.019135,36.743469 
	C41.987041,36.277016 41.973171,36.090508 41.959305,35.903996 
	C42.574863,35.307140 43.138813,34.256897 43.813572,34.180084 
	C58.696888,32.485924 72.062050,26.862190 84.897110,19.339193 
	C89.991394,16.353291 95.923431,14.703751 101.600380,12.828142 
	C108.870110,10.426293 116.082489,7.544366 124.794701,8.017879 
	C128.569290,10.245676 131.535431,12.447950 134.492035,14.643135 
	C134.042221,15.876681 133.600067,17.089260 133.157913,18.301838 
	C133.620728,18.592985 134.083557,18.884132 134.546387,19.175280 
	C136.484253,16.492214 138.422104,13.809148 140.000473,11.623819 
	C142.406418,11.801108 144.474136,11.953474 146.000275,12.065932 
	C146.000275,8.935884 146.000275,6.969410 146.000275,5.002936 
	C146.749527,4.999655 147.498764,4.996373 148.770660,5.323481 
	C151.035233,8.392557 152.868393,9.639789 155.000397,6.003074 
M153.609253,14.797703 
	C153.214600,14.793508 152.819931,14.789311 152.425262,14.785116 
	C152.423752,14.948887 152.411255,15.254992 152.422333,15.255847 
	C152.815063,15.286151 153.209976,15.287847 153.609253,14.797703 
z"/>
<path fill="#537C5D" opacity="1.000000" stroke="none" 
	d="
M136.333542,38.812294 
	C136.946136,37.504208 137.849670,36.190281 138.920410,35.030750 
	C139.745529,34.137215 140.780701,33.437649 142.243790,32.328568 
	C143.511200,31.991600 144.257294,31.977905 145.003403,31.964211 
	C148.639359,31.340649 152.628052,31.318462 154.190659,26.108847 
	C157.966919,24.996960 161.487976,24.501287 165.386246,23.962791 
	C171.374634,22.875671 175.046768,19.830595 176.262665,13.789908 
	C176.006516,12.720357 175.497299,11.850835 175.088074,10.733021 
	C175.125198,9.656155 175.062317,8.827579 175.304688,7.869505 
	C176.442368,7.466659 177.274780,7.193312 178.107208,6.919966 
	C178.107208,6.919967 178.014282,6.976310 178.025543,7.314204 
	C179.106476,9.048601 180.176132,10.445104 181.245789,11.841608 
	C181.824356,10.920036 182.402924,9.998462 183.308014,9.121154 
	C184.067413,9.236856 184.500290,9.308290 184.933167,9.379725 
	C186.519043,10.617676 188.104904,11.855625 189.924683,13.286993 
	C189.803543,16.366196 189.448502,19.251980 189.044159,22.485596 
	C187.928192,22.884480 186.861542,22.935532 185.392731,22.576675 
	C184.618134,21.600155 184.245667,21.033543 183.873199,20.466934 
	C183.580536,21.276342 183.287872,22.085749 182.995209,22.895157 
	C166.364899,24.751392 151.395660,31.420898 136.333542,38.812294 
M182.569519,15.296412 
	C182.296432,15.010375 182.023346,14.724339 181.750259,14.438300 
	C181.631866,14.551515 181.404312,14.756953 181.410828,14.764657 
	C181.665680,15.066291 181.941833,15.349916 182.569519,15.296412 
M185.410980,13.480837 
	C185.410980,13.480837 185.523575,13.413279 185.410980,13.480837 
z"/>
<path fill="#3E7750" opacity="1.000000" stroke="none" 
	d="
M119.363739,47.940811 
	C115.991112,48.680126 112.891266,49.330349 109.396255,49.592056 
	C109.001038,48.135792 109.000977,47.068050 109.345306,45.947678 
	C110.128174,44.931465 110.566643,43.967888 111.421196,43.003006 
	C113.224808,43.001198 114.612335,43.000687 116.168633,43.318310 
	C117.893028,44.091675 119.448647,44.546906 121.003365,45.304058 
	C120.995193,46.008480 120.987930,46.410980 120.980667,46.813480 
	C120.532616,47.159557 120.084564,47.505634 119.363739,47.940811 
z"/>
<path fill="#537C5D" opacity="1.000000" stroke="none" 
	d="
M121.348801,46.846092 
	C120.987930,46.410980 120.995193,46.008480 121.008720,45.057991 
	C121.014984,44.509998 121.022179,44.017841 121.285141,43.894287 
	C122.032486,43.184380 122.516876,42.598030 123.386391,41.967987 
	C125.795250,41.562927 127.818993,41.201553 129.913055,40.912254 
	C129.983368,40.984329 130.123642,41.128841 130.123642,41.128845 
	C127.321404,43.045464 124.519165,44.962082 121.348801,46.846092 
z"/>
<path fill="#537C5D" opacity="1.000000" stroke="none" 
	d="
M130.010620,39.016541 
	C131.104904,39.017517 132.199203,39.018490 133.703735,39.032944 
	C133.029892,39.713886 131.945801,40.381344 130.492676,41.088821 
	C130.123642,41.128841 129.983368,40.984329 129.969696,40.612564 
	C129.974228,39.832718 129.992416,39.424629 130.010620,39.016541 
z"/>
<path fill="#578064" opacity="1.000000" stroke="none" 
	d="
M183.329803,22.967010 
	C183.287872,22.085749 183.580536,21.276342 183.873199,20.466934 
	C184.245667,21.033543 184.618134,21.600155 184.998871,22.498495 
	C184.559555,22.899769 184.111969,22.969315 183.329803,22.967010 
z"/>
<path fill="#407851" opacity="1.000000" stroke="none" 
	d="
M145.635178,4.841417 
	C146.000275,6.969410 146.000275,8.935884 146.000275,12.065932 
	C144.474136,11.953474 142.406418,11.801108 140.000473,11.623819 
	C138.422104,13.809148 136.484253,16.492214 134.546387,19.175280 
	C134.083557,18.884132 133.620728,18.592985 133.157913,18.301838 
	C133.600067,17.089260 134.042221,15.876681 134.492035,14.643135 
	C131.535431,12.447950 128.569290,10.245676 125.242188,7.999416 
	C126.186142,7.188757 127.491043,6.422084 129.158173,5.230493 
	C129.740265,4.644451 129.898270,4.436351 129.994415,4.181273 
	C131.053055,4.121763 132.111679,4.062253 133.565033,3.947608 
	C134.433762,4.245595 134.907791,4.598714 135.650543,5.348729 
	C135.608795,7.239386 135.298325,8.733147 134.987869,10.226908 
	C135.704468,10.336126 136.421066,10.445345 137.137665,10.554563 
	C137.424408,8.374854 137.711136,6.195145 137.997879,4.015436 
	C140.421951,4.236923 142.846008,4.458411 145.635178,4.841417 
z"/>
<path fill="#5D8469" opacity="1.000000" stroke="none" 
	d="
M18.564236,48.398945 
	C13.732919,43.542274 8.901601,38.685600 4.060660,33.483986 
	C7.479438,34.369141 10.907838,35.599239 14.552462,37.201412 
	C14.556984,37.793041 14.303335,37.940414 13.829836,38.095577 
	C13.583461,38.284897 13.432540,38.456409 13.460288,38.493217 
	C13.608323,38.689556 13.801036,38.852207 13.983311,39.270172 
	C13.988326,39.513832 13.998510,40.001144 14.042572,40.342297 
	C15.579168,43.255280 17.071701,45.827114 18.564236,48.398945 
z"/>
<path fill="#3D7A57" opacity="1.000000" stroke="none" 
	d="
M41.536087,35.962852 
	C41.973171,36.090508 41.987041,36.277016 41.834854,36.999912 
	C41.113480,38.358093 40.558155,39.179890 39.808510,40.256496 
	C38.409763,40.341087 37.205341,40.170864 35.767067,39.728317 
	C31.703094,38.984581 27.721546,42.401413 23.567455,39.005211 
	C21.086983,39.002968 19.044312,39.002552 16.906719,38.765007 
	C16.546686,38.091553 16.281569,37.655231 16.016451,37.218910 
	C21.645697,37.143551 27.278225,37.158550 32.902779,36.954075 
	C35.647148,36.854305 38.376640,36.345413 41.536087,35.962852 
z"/>
<path fill="#37744A" opacity="1.000000" stroke="none" 
	d="
M15.764989,37.159691 
	C16.281569,37.655231 16.546686,38.091553 16.878147,39.047680 
	C15.962500,39.712040 14.980505,39.856594 13.998510,40.001144 
	C13.998510,40.001144 13.988326,39.513832 13.992481,39.017365 
	C14.000338,38.352463 14.004040,38.184036 14.007741,38.015610 
	C14.303335,37.940414 14.556984,37.793041 14.887400,37.385696 
	C15.175252,37.165424 15.344390,37.132946 15.764989,37.159691 
z"/>
<path fill="#507B60" opacity="1.000000" stroke="none" 
	d="
M129.737488,4.145700 
	C129.898270,4.436351 129.740265,4.644451 129.345093,4.897970 
	C129.273392,4.696953 129.376984,4.403540 129.737488,4.145700 
z"/>
<path fill="#417954" opacity="1.000000" stroke="none" 
	d="
M14.042572,40.342297 
	C14.980505,39.856594 15.962500,39.712040 16.973066,39.284813 
	C19.044312,39.002552 21.086983,39.002968 23.570934,39.384960 
	C27.031134,43.411198 25.512245,49.900101 31.516685,51.754398 
	C31.868273,51.862976 31.824614,53.251411 31.584770,54.041679 
	C30.416679,54.528156 29.628706,55.017200 28.840734,55.506241 
	C28.840734,55.506241 28.370077,55.345905 28.221430,54.871666 
	C28.410366,53.698776 28.747950,53.000130 29.085533,52.301483 
	C25.599619,51.010803 22.113708,49.720127 18.627796,48.429447 
	C18.627796,48.429447 18.600378,48.406075 18.582306,48.402512 
	C17.071701,45.827114 15.579168,43.255280 14.042572,40.342297 
z"/>
<path fill="#5D8469" opacity="1.000000" stroke="none" 
	d="
M18.734022,48.740742 
	C22.113708,49.720127 25.599619,51.010803 29.085533,52.301483 
	C28.747950,53.000130 28.410366,53.698776 28.037098,54.704849 
	C24.947693,53.025524 21.893970,51.038780 18.734022,48.740742 
z"/>
<path fill="#5D8469" opacity="1.000000" stroke="none" 
	d="
M34.591148,58.555714 
	C35.224468,58.513584 36.032291,58.738544 36.941902,59.287594 
	C36.284348,59.348724 35.524998,59.085766 34.591148,58.555714 
z"/>
<path fill="#5D8469" opacity="1.000000" stroke="none" 
	d="
M28.954811,55.705544 
	C29.628706,55.017200 30.416679,54.528156 31.578957,54.275719 
	C31.953260,54.512325 31.928196,54.980938 31.928196,54.980938 
	C31.363951,55.192291 30.799706,55.403645 30.079086,55.884216 
	C29.594814,56.219242 29.310207,56.136379 28.954811,55.705544 
z"/>
<path fill="#37744A" opacity="1.000000" stroke="none" 
	d="
M40.002831,40.001682 
	C40.558155,39.179890 41.113480,38.358093 41.853085,37.279854 
	C45.959934,38.075203 49.743309,33.738308 53.824886,36.870163 
	C55.515007,38.167015 57.710777,38.804886 59.418125,40.460934 
	C62.086365,40.282864 64.754601,40.104794 67.893623,39.895306 
	C67.708237,38.540913 67.473518,36.826069 67.103722,34.124325 
	C72.363266,32.292973 77.813347,30.395273 83.515594,28.409771 
	C83.157410,27.469604 82.797173,26.524055 82.127533,24.766384 
	C83.961182,25.557199 85.048767,26.026253 85.147995,26.069046 
	C88.581841,23.991627 91.495071,22.229172 95.120605,20.035789 
	C95.367920,22.296144 95.492813,23.437628 95.653954,24.910324 
	C98.911186,23.443596 102.132111,21.949808 103.814751,26.941605 
	C108.011070,20.756645 100.034836,21.073940 98.818436,16.819769 
	C100.661400,17.449400 101.809525,17.541281 102.534309,18.143049 
	C105.186211,20.344866 106.816841,19.882303 108.173447,16.704248 
	C108.534409,15.858642 110.164734,15.554881 111.761780,15.315577 
	C113.780914,17.427446 114.837044,18.851713 112.191322,20.951935 
	C109.953537,22.728336 108.499413,25.491926 106.698463,27.818623 
	C107.334427,28.233324 107.970390,28.648026 108.606354,29.062729 
	C109.559898,27.110561 110.513443,25.158396 111.466988,23.206230 
	C111.914726,23.240849 112.362465,23.275467 112.810204,23.310087 
	C113.234428,27.511427 113.658653,31.712769 114.062653,35.713867 
	C113.069168,38.082756 112.037140,40.543530 111.005112,43.004307 
	C110.566643,43.967888 110.128174,44.931465 109.299721,45.580837 
	C106.948883,42.219181 105.246758,41.584160 103.802208,45.685188 
	C103.598206,46.264347 102.619514,46.570629 101.631630,47.042763 
	C99.674690,47.321255 98.085510,47.560192 96.496330,47.799133 
	C96.404701,47.400509 96.313065,47.001884 96.221436,46.603260 
	C97.754601,45.869049 99.287773,45.134834 100.820946,44.400620 
	C94.002235,42.340385 92.463226,46.794334 91.277794,52.637356 
	C88.177170,50.535923 85.698097,48.855740 84.290504,47.901749 
	C81.540558,48.830502 79.453629,49.210045 77.719536,50.204716 
	C75.630539,51.402958 73.830040,53.109623 71.925987,54.623035 
	C70.540207,55.724499 69.243042,57.726860 67.811195,57.817078 
	C64.804260,58.006531 61.295902,59.301102 58.949627,55.442505 
	C58.427662,54.584106 55.223740,54.736904 53.573158,55.322247 
	C50.737072,56.328003 49.120872,56.180336 48.731739,52.834904 
	C48.640511,52.050636 48.138481,51.314152 47.860260,50.640034 
	C44.487629,53.339088 44.698521,55.186390 47.004616,57.004795 
	C44.312286,59.521744 41.862209,58.098778 39.478813,56.050034 
	C40.600353,53.193893 41.663651,50.826202 42.733433,48.444080 
	C48.456978,48.678879 48.456978,48.678879 46.685757,40.938988 
	C43.350590,46.595367 41.696857,43.202244 40.002831,40.001682 
M90.390488,25.202391 
	C90.785316,25.206593 91.180145,25.210794 91.574966,25.214996 
	C91.576477,25.051140 91.588974,24.744869 91.577911,24.744015 
	C91.184998,24.713703 90.789879,24.712006 90.390488,25.202391 
z"/>
<path fill="#3C764C" opacity="1.000000" stroke="none" 
	d="
M47.351643,57.062115 
	C44.698521,55.186390 44.487629,53.339088 47.860260,50.640034 
	C48.138481,51.314152 48.640511,52.050636 48.731739,52.834904 
	C49.120872,56.180336 50.737072,56.328003 53.573158,55.322247 
	C55.223740,54.736904 58.427662,54.584106 58.949627,55.442505 
	C61.295902,59.301102 64.804260,58.006531 67.811195,57.817078 
	C69.243042,57.726860 70.540207,55.724499 71.925987,54.623035 
	C73.830040,53.109623 75.630539,51.402958 77.719536,50.204716 
	C79.453629,49.210045 81.540558,48.830502 84.290504,47.901749 
	C85.698097,48.855740 88.177170,50.535923 91.277794,52.637356 
	C92.463226,46.794334 94.002235,42.340385 100.820946,44.400620 
	C99.287773,45.134834 97.754601,45.869049 96.221436,46.603260 
	C96.313065,47.001884 96.404701,47.400509 96.496330,47.799133 
	C98.085510,47.560192 99.674690,47.321255 101.634232,47.392811 
	C102.336021,48.802082 102.667450,49.900860 102.998871,50.999634 
	C97.890747,53.741917 92.861481,56.650948 87.627167,59.126366 
	C86.025841,59.883667 83.861610,59.450687 81.575333,59.585125 
	C81.245987,60.397652 80.775223,61.559082 80.343880,62.623260 
	C79.803841,62.707771 79.324059,62.921219 79.183357,62.784847 
	C74.365051,58.114552 68.688156,62.885563 63.560574,61.362019 
	C61.614822,60.783886 59.491810,60.802345 57.221684,59.947094 
	C56.326588,58.899559 55.659393,58.453815 54.992203,58.008072 
	C52.561024,57.711861 50.129848,57.415646 47.351643,57.062115 
z"/>
<path fill="#37744A" opacity="1.000000" stroke="none" 
	d="
M32.312943,54.988007 
	C31.928196,54.980938 31.953260,54.512325 31.959074,54.278286 
	C31.824614,53.251411 31.868273,51.862976 31.516685,51.754398 
	C25.512245,49.900101 27.031134,43.411198 24.008732,39.386795 
	C27.721546,42.401413 31.703094,38.984581 35.774925,40.133728 
	C35.677597,45.543118 35.338562,50.274776 34.999527,55.006435 
	C34.232250,55.002651 33.464973,54.998867 32.312943,54.988007 
z"/>
<path fill="#3C764C" opacity="1.000000" stroke="none" 
	d="
M35.230881,55.277222 
	C35.338562,50.274776 35.677597,45.543118 36.008774,40.406048 
	C37.205341,40.170864 38.409763,40.341087 39.808510,40.256496 
	C41.696857,43.202244 43.350590,46.595367 46.685757,40.938988 
	C48.456978,48.678879 48.456978,48.678879 42.733433,48.444080 
	C41.663651,50.826202 40.600353,53.193893 39.260643,55.785843 
	C37.810226,55.856075 36.636230,55.702042 35.230881,55.277222 
z"/>
<path fill="#3A784A" opacity="1.000000" stroke="none" 
	d="
M103.324226,51.141335 
	C102.667450,49.900860 102.336021,48.802082 102.001991,47.353256 
	C102.619514,46.570629 103.598206,46.264347 103.802208,45.685188 
	C105.246758,41.584160 106.948883,42.219181 108.955322,45.633469 
	C109.000977,47.068050 109.001038,48.135792 109.003685,49.604111 
	C107.220711,50.430798 105.435143,50.856915 103.324226,51.141335 
z"/>
<path fill="#37744A" opacity="1.000000" stroke="none" 
	d="
M55.113789,58.273701 
	C55.659393,58.453815 56.326588,58.899559 56.996506,59.674629 
	C56.411282,59.515747 55.823330,59.027538 55.113789,58.273701 
z"/>
<path fill="#578064" opacity="1.000000" stroke="none" 
	d="
M182.981491,9.076887 
	C182.402924,9.998462 181.824356,10.920036 181.245789,11.841608 
	C180.176132,10.445104 179.106476,9.048601 178.055237,7.268703 
	C179.449173,7.282042 180.824661,7.678776 182.571014,8.362625 
	C182.941864,8.649739 182.981491,9.076886 182.981491,9.076887 
z"/>
<path fill="#F0FBF5" opacity="1.000000" stroke="none" 
	d="
M183.308014,9.121153 
	C182.981491,9.076886 182.941864,8.649739 182.928116,8.435731 
	C183.336853,7.665091 183.759338,7.108460 184.181824,6.551829 
	C184.445328,7.244840 184.708832,7.937850 184.952744,9.005292 
	C184.500290,9.308290 184.067413,9.236856 183.308014,9.121153 
z"/>
<path fill="#578064" opacity="1.000000" stroke="none" 
	d="
M177.982803,6.641752 
	C177.274780,7.193312 176.442368,7.466659 175.302002,7.514925 
	C174.989319,6.580678 174.984558,5.871513 174.979797,5.162348 
	C175.148788,5.088519 175.317795,5.014690 175.750122,4.856066 
	C176.628448,5.302026 177.243423,5.832782 177.982803,6.641752 
z"/>
<path fill="#477B56" opacity="1.000000" stroke="none" 
	d="
M174.749664,5.077785 
	C174.984558,5.871513 174.989319,6.580678 174.996765,7.644423 
	C175.062317,8.827579 175.125198,9.656155 174.791595,10.776784 
	C174.933273,12.042538 175.471436,13.016236 176.009583,13.989937 
	C175.046768,19.830595 171.374634,22.875671 165.382690,23.557783 
	C163.671310,20.331074 162.340683,17.466551 161.063614,14.717329 
	C161.609726,12.538580 162.303345,9.771403 162.996948,7.004225 
	C165.446915,6.908060 167.896866,6.811896 170.972595,6.835824 
	C172.056061,6.640053 172.513763,6.324191 172.971451,6.008331 
	C173.247849,5.805013 173.524231,5.601692 173.916840,5.165018 
	C174.033081,4.931664 174.519547,4.993223 174.749664,5.077785 
z"/>
<path fill="#407851" opacity="1.000000" stroke="none" 
	d="
M162.631836,6.965301 
	C162.303345,9.771403 161.609726,12.538580 161.063614,14.717329 
	C162.340683,17.466551 163.671310,20.331074 165.005493,23.600607 
	C161.487976,24.501287 157.966919,24.996960 154.227859,25.746117 
	C153.003647,25.524393 151.997406,25.049185 151.089767,24.620533 
	C149.956055,25.838943 148.833893,27.044937 147.711746,28.250933 
	C147.372284,28.033573 147.032822,27.816216 146.693359,27.598856 
	C147.135452,26.058868 147.577530,24.518881 147.885757,23.445150 
	C145.929352,22.449911 144.374008,21.658697 142.818665,20.867483 
	C143.065384,20.350706 143.312088,19.833929 143.558807,19.317152 
	C145.268082,19.693344 147.117615,19.771894 148.661423,20.499275 
	C154.183701,23.101160 154.912369,23.105169 156.689270,17.389242 
	C157.738159,14.015237 157.647690,10.287050 158.034149,6.366221 
	C159.421387,6.318326 160.844040,6.622350 162.631836,6.965301 
z"/>
<path fill="#407851" opacity="1.000000" stroke="none" 
	d="
M154.656281,5.946301 
	C152.868393,9.639789 151.035233,8.392557 149.145279,5.323100 
	C150.768875,5.291396 152.540512,5.590462 154.656281,5.946301 
z"/>
<path fill="#3E7750" opacity="1.000000" stroke="none" 
	d="
M137.737747,4.118013 
	C137.711136,6.195145 137.424408,8.374854 137.137665,10.554563 
	C136.421066,10.445345 135.704468,10.336126 134.987869,10.226908 
	C135.298325,8.733147 135.608795,7.239386 135.960373,5.380092 
	C136.493546,4.749903 136.985580,4.485246 137.737747,4.118013 
z"/>
<path fill="#578064" opacity="1.000000" stroke="none" 
	d="
M172.679413,6.027925 
	C172.513763,6.324191 172.056061,6.640053 171.304230,6.971329 
	C171.469177,6.673669 171.928268,6.360595 172.679413,6.027925 
z"/>
<path fill="#3A784A" opacity="1.000000" stroke="none" 
	d="
M111.421196,43.003006 
	C112.037140,40.543530 113.069168,38.082756 114.062653,35.713867 
	C113.658653,31.712769 113.234428,27.511427 112.810204,23.310087 
	C112.362465,23.275467 111.914726,23.240849 111.466988,23.206230 
	C110.513443,25.158396 109.559898,27.110561 108.606354,29.062729 
	C107.970390,28.648026 107.334427,28.233324 106.698463,27.818623 
	C108.499413,25.491926 109.953537,22.728336 112.191322,20.951935 
	C114.837044,18.851713 113.780914,17.427446 112.155350,15.314669 
	C112.802917,14.750555 113.606445,14.500583 115.024963,14.292934 
	C116.270187,16.863270 117.678329,19.499294 117.345871,21.893635 
	C116.863541,25.367313 117.559402,27.276608 121.000610,27.999619 
	C122.003929,27.955330 123.262856,28.283211 123.965286,27.800800 
	C126.666801,25.945482 129.190109,23.830679 132.463272,22.236876 
	C130.899277,27.672646 134.285065,33.519955 130.012207,38.635429 
	C129.992416,39.424629 129.974228,39.832718 129.899384,40.540489 
	C127.818993,41.201553 125.795250,41.562927 123.348923,41.610954 
	C121.530991,39.944866 120.135658,38.592121 118.740326,37.239372 
	C117.826981,39.159481 116.913643,41.079586 116.000153,42.999847 
	C116.000000,43.000000 115.999863,43.000172 115.999863,43.000175 
	C114.612335,43.000687 113.224808,43.001198 111.421196,43.003006 
M119.606293,33.252979 
	C120.645279,33.062603 121.684265,32.872231 122.723259,32.681858 
	C122.665169,32.258244 122.607079,31.834627 122.548988,31.411011 
	C121.366997,31.274792 120.185013,31.138575 118.622467,30.536118 
	C118.134064,30.759214 117.645653,30.982311 117.157249,31.205412 
	C117.771690,31.803303 118.386124,32.401196 119.606293,33.252979 
z"/>
<path fill="#37744A" opacity="1.000000" stroke="none" 
	d="
M120.966492,27.646622 
	C117.559402,27.276608 116.863541,25.367313 117.345871,21.893635 
	C117.678329,19.499294 116.270187,16.863270 115.319824,14.167364 
	C116.703362,12.217929 123.973114,11.408689 125.168076,12.971342 
	C125.587173,13.519400 125.863579,14.640988 125.585136,15.180996 
	C124.037743,18.182074 122.179260,21.026283 120.704666,24.059069 
	C120.295181,24.901247 120.830521,26.202816 120.966492,27.646622 
z"/>
<path fill="#407851" opacity="1.000000" stroke="none" 
	d="
M145.000870,31.571459 
	C144.257294,31.977905 143.511200,31.991600 142.392609,32.006889 
	C140.437225,31.678879 138.854324,31.349270 137.271408,31.019661 
	C137.360931,30.452358 137.450455,29.885056 137.539978,29.317753 
	C139.916611,30.878153 143.247864,24.241653 145.000870,31.571459 
z"/>
<path fill="#407851" opacity="1.000000" stroke="none" 
	d="
M153.606934,15.045630 
	C153.209976,15.287847 152.815063,15.286151 152.422333,15.255847 
	C152.411255,15.254992 152.423752,14.948887 152.425262,14.785116 
	C152.819931,14.789311 153.214600,14.793508 153.606934,15.045630 
z"/>
<path fill="#578064" opacity="1.000000" stroke="none" 
	d="
M176.262665,13.789907 
	C175.471436,13.016236 174.933273,12.042538 174.691589,11.025076 
	C175.497299,11.850835 176.006516,12.720357 176.262665,13.789907 
z"/>
<path fill="#578064" opacity="1.000000" stroke="none" 
	d="
M182.392365,15.466156 
	C181.941833,15.349916 181.665680,15.066291 181.410828,14.764657 
	C181.404312,14.756953 181.631866,14.551515 181.750259,14.438302 
	C182.023346,14.724339 182.296432,15.010375 182.392365,15.466156 
z"/>
<path fill="#578064" opacity="1.000000" stroke="none" 
	d="
M185.467285,13.447058 
	C185.523575,13.413279 185.410980,13.480837 185.467285,13.447058 
z"/>
<path fill="#3A784A" opacity="1.000000" stroke="none" 
	d="
M121.022179,44.017841 
	C121.022179,44.017841 121.014984,44.509998 121.009628,44.756065 
	C119.448647,44.546906 117.893028,44.091675 116.168633,43.318306 
	C115.999863,43.000172 116.000000,43.000000 116.388718,42.999855 
	C118.192352,43.339092 119.607262,43.678467 121.022179,44.017841 
z"/>
<path fill="#3E7750" opacity="1.000000" stroke="none" 
	d="
M121.285141,43.894287 
	C119.607262,43.678467 118.192352,43.339092 116.388870,42.999702 
	C116.913643,41.079586 117.826981,39.159481 118.740326,37.239372 
	C120.135658,38.592121 121.530991,39.944866 122.963791,41.654644 
	C122.516876,42.598030 122.032486,43.184380 121.285141,43.894287 
z"/>
<path fill="#417954" opacity="1.000000" stroke="none" 
	d="
M13.829836,38.095577 
	C14.004040,38.184036 14.000338,38.352463 13.987465,38.773705 
	C13.801036,38.852207 13.608323,38.689556 13.460288,38.493217 
	C13.432540,38.456409 13.583461,38.284897 13.829836,38.095577 
z"/>
<path fill="#3E7750" opacity="1.000000" stroke="none" 
	d="
M90.392776,24.954342 
	C90.789879,24.712006 91.184998,24.713703 91.577911,24.744015 
	C91.588974,24.744869 91.576477,25.051140 91.574966,25.214996 
	C91.180145,25.210794 90.785316,25.206593 90.392776,24.954342 
z"/>
<path fill="#3E7750" opacity="1.000000" stroke="none" 
	d="
M119.003021,31.002356 
	C120.185013,31.138575 121.366997,31.274792 122.548988,31.411011 
	C122.607079,31.834627 122.665169,32.258244 122.723259,32.681858 
	C121.684265,32.872231 120.645279,33.062603 119.303673,32.793243 
	C119.001709,31.889788 119.002365,31.446072 119.003021,31.002356 
z"/>
<path fill="#37744A" opacity="1.000000" stroke="none" 
	d="
M118.812744,30.769238 
	C119.002365,31.446072 119.001709,31.889788 119.000809,32.666294 
	C118.386124,32.401196 117.771690,31.803303 117.157249,31.205410 
	C117.645653,30.982311 118.134064,30.759214 118.812744,30.769238 
z"/>
</svg>