<svg version="1.1" id="Layer_1" xmlns="http://www.w3.org/2000/svg" 
xmlns:xlink="http://www.w3.org/1999/xlink" x="0px" y="0px"
	  viewBox="0 0 628 231" enable-background="new 0 0 628 231" xml:space="preserve">
<path fill="none" opacity="1.000000" stroke="none" 
	d="
M395.000000,232.000000 
	C263.333344,232.000000 132.166702,232.000000 1.000035,232.000000 
	C1.000023,155.000031 1.000023,78.000053 1.000012,1.000056 
	C210.333298,1.000037 419.666595,1.000037 628.999878,1.000019 
	C628.999939,77.999939 628.999939,154.999878 629.000000,231.999908 
	C551.166687,232.000000 473.333344,232.000000 395.000000,232.000000 
M233.991745,145.006683 
	C233.991745,145.006683 233.917419,145.006592 234.024551,145.575302 
	C234.341019,145.774918 234.657501,145.974518 235.160004,146.556763 
	C235.335663,146.796036 235.567581,146.951279 235.927277,147.740143 
	C237.583008,149.238449 239.238739,150.736771 240.898071,152.099136 
	C240.898071,152.099136 240.763046,152.115540 240.916977,152.812393 
	C243.930817,155.290909 246.944672,157.769424 250.140167,160.628372 
	C250.320831,160.867081 250.560013,161.002151 251.206375,161.634064 
	C255.422470,164.456772 259.638580,167.279480 263.866211,170.159515 
	C263.866211,170.159515 263.920593,170.137955 264.235809,170.776108 
	C269.491608,172.876968 274.747437,174.977829 279.987610,177.009445 
	C279.987610,177.009445 279.918396,177.025146 280.413391,177.598328 
	C284.037354,178.603409 287.613770,179.853882 291.294373,180.566406 
	C301.327087,182.508636 311.334534,183.154877 321.741089,178.853882 
	C324.011627,178.036118 326.355194,177.370819 328.520905,176.334106 
	C329.552185,175.840424 330.245087,174.639862 331.091248,173.759506 
	C330.051788,172.947418 329.120148,171.904343 327.955414,171.360703 
	C320.346588,167.809280 312.687225,164.366028 305.043671,160.956299 
	C305.043671,160.956299 305.112457,160.952942 304.801666,160.346207 
	C303.211243,159.149857 301.620789,157.953506 299.739594,156.172440 
	C297.864258,154.391922 295.988892,152.611404 293.829559,150.212753 
	C292.225159,148.804062 290.620758,147.395370 288.864441,145.516815 
	C288.679871,145.218796 288.415863,145.034775 287.974762,144.264130 
	C287.680664,143.692566 287.474243,143.050430 287.079529,142.559814 
	C278.698120,132.141891 270.680206,121.396408 261.770050,111.450645 
	C255.166321,104.079399 247.397507,97.751915 239.812149,90.444664 
	C238.552826,89.584755 237.293503,88.724846 235.765381,87.402603 
	C235.258804,87.333542 234.752243,87.264481 233.775345,87.094322 
	C233.775345,87.094322 233.295120,87.105354 233.004364,86.515778 
	C230.716171,85.664474 228.427979,84.813171 225.830124,83.327728 
	C224.571091,82.805893 223.312073,82.284050 222.071869,81.825310 
	C222.071869,81.825310 222.126236,81.788078 221.676346,81.147194 
	C220.415237,80.872917 219.132828,80.672012 217.896301,80.313072 
	C204.737305,76.493401 191.363922,75.672951 178.092499,78.976616 
	C170.463135,80.875801 163.197433,84.235931 155.768036,86.938416 
	C155.718735,87.468140 155.669449,87.997871 155.620148,88.527603 
	C162.045517,92.757019 169.913910,93.458809 177.017715,96.053925 
	C177.017715,96.053925 176.909668,95.988258 177.081543,96.453667 
	C177.274368,96.785187 177.558365,96.911255 178.586761,97.137741 
	C180.367523,97.763069 182.148300,98.388397 184.250137,99.552574 
	C184.842896,99.722420 185.435638,99.892265 185.911575,99.985352 
	C185.911575,99.985352 185.834778,100.102142 186.244080,100.681725 
	C196.432266,105.685074 205.946594,111.543297 213.123871,120.659569 
	C215.041031,123.094658 217.663834,124.974197 220.186081,127.631363 
	C220.506195,128.096695 220.826309,128.562012 221.171112,129.540665 
	C221.450439,129.720993 221.729767,129.901337 221.938019,129.996094 
	C221.938019,129.996094 221.852615,130.067352 222.180817,130.683716 
	C225.757660,135.176163 229.334488,139.668610 233.000076,144.075317 
	C233.000076,144.075317 232.914490,143.986435 233.047440,144.535477 
	C233.361679,144.717316 233.675934,144.899139 233.991745,145.006683 
M350.489655,54.927917 
	C349.990265,54.673294 349.490875,54.418674 348.209656,54.086357 
	C347.480682,55.652306 346.069763,57.263668 346.170380,58.774364 
	C346.356934,61.575802 347.426636,64.318428 348.000946,67.947777 
	C348.329926,73.279449 348.932373,78.611755 348.920135,83.942650 
	C348.904114,90.932304 348.403198,97.920837 347.995087,105.845779 
	C348.958954,113.254906 349.922821,120.664040 351.044464,128.811890 
	C351.672852,130.506378 352.387085,132.174530 352.915955,133.899521 
	C356.894012,146.874695 365.954163,154.237335 378.803619,157.446777 
	C382.632355,158.403061 383.608246,157.068008 383.300781,153.117874 
	C382.946625,148.568008 383.115845,143.821213 384.038940,139.363083 
	C385.596527,131.840790 387.926727,124.478462 390.293396,116.311363 
	C394.751984,98.910507 391.708069,83.186913 379.735413,69.226730 
	C379.735413,69.226730 379.512939,69.171661 379.127045,68.683327 
	C373.121002,62.236610 366.200439,57.355671 356.909943,55.295345 
	C354.945557,55.256256 352.981140,55.217167 350.489655,54.927917 
M289.129242,115.600845 
	C289.736603,116.113266 290.343933,116.625687 291.271667,117.680367 
	C292.188599,118.796631 293.105499,119.912888 294.334534,121.672058 
	C297.672852,126.329071 301.011139,130.986084 304.702484,136.225204 
	C307.468231,138.816605 310.234009,141.408005 313.053009,144.708160 
	C318.022797,148.475540 322.992584,152.242905 328.277069,156.678680 
	C334.377319,160.105865 340.804993,161.835037 347.923492,160.684845 
	C344.588470,152.243362 341.346161,144.036453 338.016724,135.069778 
	C337.012268,132.038040 336.007812,129.006317 335.608887,125.506386 
	C332.775970,115.658195 329.943054,105.810005 326.915833,95.236671 
	C324.644043,90.532585 322.772705,85.576553 320.008118,81.182526 
	C315.687561,74.315414 311.587311,67.099800 303.816345,62.337090 
	C299.443848,59.207138 295.239502,55.803188 290.667816,52.997845 
	C276.089874,44.052341 260.293243,42.568691 243.860306,46.145222 
	C242.305496,46.483624 239.408768,47.168404 242.098557,50.683659 
	C243.723450,51.865063 245.348343,53.046463 247.086212,54.623440 
	C247.245026,54.876034 247.473297,55.012054 248.099152,55.637199 
	C251.389313,58.829086 254.679474,62.020969 258.250031,65.802277 
	C263.175446,72.712700 268.437866,79.411621 272.941132,86.586990 
	C278.590759,95.588882 283.617981,104.981384 288.983215,114.602478 
	C288.983215,114.602478 289.083099,114.993080 289.129242,115.600845 
M327.156189,194.132217 
	C320.828461,194.750778 314.503021,195.829269 308.172363,195.860580 
	C301.640533,195.892883 295.107635,194.843567 288.565033,194.427353 
	C287.477722,194.358185 286.015686,194.821350 285.344879,195.582916 
	C284.945923,196.035858 285.421906,197.885468 286.074219,198.535400 
	C289.952820,202.399841 293.997742,206.097366 298.565094,210.218262 
	C300.376953,211.447021 302.188812,212.675797 304.607635,214.236298 
	C305.443634,215.041229 306.161835,216.044388 307.133179,216.621597 
	C323.575287,226.392136 341.411346,229.525925 360.156586,226.784058 
	C376.091003,224.453323 389.548920,216.046326 403.686951,207.719543 
	C409.229279,204.602432 414.652679,201.246124 420.339447,198.419647 
	C431.114471,193.064148 441.848419,187.496872 454.856140,185.916321 
	C461.048523,185.550720 467.243744,185.224792 473.431152,184.788818 
	C474.805817,184.691971 476.153168,184.207260 477.513092,183.901138 
	C477.056152,182.465805 477.047363,180.458740 476.067474,179.690598 
	C470.833313,175.587784 465.398987,171.733887 459.945465,167.920258 
	C457.301361,166.071198 454.405151,164.765869 450.976715,165.201141 
	C450.555359,164.801010 450.200562,164.187439 449.702820,164.032242 
	C439.664307,160.902054 429.494263,159.781219 418.924225,160.767365 
	C400.781250,162.460068 384.106628,168.286423 368.434509,177.288315 
	C367.039154,178.089798 366.121887,179.723602 364.420441,181.174866 
	C363.931702,181.518127 363.442993,181.861374 362.234192,182.170349 
	C351.210144,187.304626 340.177032,192.413254 327.156189,194.132217 
z"/>
<path fill="#4D7E58" opacity="1.000000" stroke="none" 
	d="
M389.932007,117.048859 
	C387.926727,124.478462 385.596527,131.840790 384.038940,139.363083 
	C383.115845,143.821213 382.946625,148.568008 383.300781,153.117874 
	C383.608246,157.068008 382.632355,158.403061 378.803619,157.446777 
	C365.954163,154.237335 356.894012,146.874695 352.915955,133.899521 
	C352.387085,132.174530 351.672852,130.506378 351.136475,128.163040 
	C351.809875,126.341995 352.391266,125.169792 353.325531,124.060852 
	C355.727936,126.640778 358.292328,128.911560 359.651642,131.757874 
	C360.607697,133.759933 359.924347,136.544937 359.950500,139.000183 
	C359.927979,139.020035 360.019196,139.026337 360.306885,139.206635 
	C361.410278,140.210632 362.080658,141.398499 363.067871,141.792511 
	C366.598358,143.201599 370.238220,144.292969 371.513367,148.556641 
	C371.628448,148.941437 373.475555,149.270981 373.546692,149.131317 
	C374.021820,148.198410 374.821228,146.669128 374.437195,146.180161 
	C371.233856,142.101196 373.818359,139.728470 376.470795,136.892563 
	C377.487427,135.805634 378.036713,132.987778 377.343567,131.830048 
	C374.943176,127.820763 374.947876,124.550026 378.251801,121.342644 
	C382.061829,117.643944 383.712616,109.400398 381.769440,104.296791 
	C380.787079,101.716621 380.003601,99.060715 379.112335,96.385353 
	C377.718964,96.653557 376.351593,96.916763 375.207550,97.136986 
	C373.399384,92.839005 371.465393,88.972137 370.222900,84.894585 
	C369.784729,83.456696 371.018402,81.497696 371.525696,79.787567 
	C371.852692,78.685112 372.246918,77.602600 372.610992,76.511147 
	C371.305481,76.538849 369.528687,76.030769 368.778961,76.690277 
	C366.048737,79.092018 364.888794,77.636642 363.395721,75.332176 
	C362.697021,74.253769 361.119385,73.744827 359.656189,73.124634 
	C357.248627,74.195984 355.124908,75.120506 352.984894,75.666489 
	C352.648102,73.847229 352.327606,72.406509 351.825256,70.703033 
	C350.928131,70.007324 350.212860,69.574371 349.388275,68.890594 
	C349.197174,68.098816 349.115356,67.557846 349.211090,66.749832 
	C349.572968,65.655052 349.757324,64.827316 350.077637,63.764656 
	C350.113586,62.684761 350.013611,61.839787 349.914612,60.621498 
	C349.942932,59.502110 349.970245,58.756031 350.342682,57.996540 
	C351.148102,57.951984 351.608368,57.920841 352.304749,57.903431 
	C352.540863,57.917164 353.013580,57.931763 353.219421,58.220100 
	C354.115479,58.940746 354.752533,59.539551 355.504181,59.779507 
	C362.642700,62.058475 370.503448,62.684517 375.793945,69.134811 
	C376.298492,69.750015 378.239044,69.187447 379.512939,69.171661 
	C379.512939,69.171661 379.735413,69.226730 379.670898,69.704605 
	C380.873993,73.685844 382.047485,77.226921 383.432159,80.683395 
	C385.308411,85.367073 388.419403,89.845627 389.049835,94.667244 
	C389.879364,101.012161 388.751282,107.603798 388.627899,114.092445 
	C388.609314,115.069298 389.475250,116.062965 389.932007,117.048859 
z"/>
<path fill="#3B764C" opacity="1.000000" stroke="none" 
	d="
M362.954285,182.204620 
	C363.442993,181.861374 363.931702,181.518127 364.985596,181.191376 
	C372.366669,178.471252 379.182556,175.734634 386.309021,172.932617 
	C387.410126,172.236404 388.200623,171.605591 389.399231,170.962112 
	C391.167816,170.933640 392.528351,170.917831 394.223358,171.029968 
	C397.459259,172.983963 400.097992,174.603668 403.221344,170.990158 
	C404.025085,170.060211 407.057526,171.056641 409.400757,171.186676 
	C408.175110,173.402344 407.544830,174.541702 406.914551,175.681061 
	C408.486115,176.145859 410.057678,176.610672 411.852875,177.141617 
	C412.796722,179.003601 413.916382,181.212387 414.451874,182.268799 
	C416.848206,179.433502 418.865051,176.555069 421.387604,174.223877 
	C423.282410,172.472809 425.707062,171.120163 428.123779,170.169708 
	C429.760406,169.526016 431.796600,169.820786 433.639313,169.934784 
	C433.777618,169.943359 434.275604,172.341858 433.794434,172.831528 
	C430.631500,176.050476 427.245483,179.050232 423.209045,182.791916 
	C423.201721,182.782990 424.113037,183.895935 425.020325,185.252380 
	C425.016266,185.495880 425.009766,185.982910 424.873535,186.307526 
	C420.994263,188.061829 417.251160,189.491501 413.213104,191.033844 
	C413.386780,192.130951 413.694733,194.076416 413.659668,196.094482 
	C411.875824,197.788086 410.434998,199.409088 408.652191,201.052612 
	C407.206207,201.716370 406.102203,202.357574 404.750244,203.004089 
	C404.502258,203.009384 404.006348,203.021408 403.761230,202.795227 
	C401.589233,201.834686 399.662384,201.100357 397.735535,200.366013 
	C397.340576,201.066696 396.945618,201.767380 396.550659,202.468063 
	C397.887878,203.014404 399.225098,203.560730 400.562347,204.107056 
	C400.367371,204.633316 400.172424,205.159561 399.977448,205.685806 
	C396.981720,206.451645 393.985962,207.217484 390.984955,207.597061 
	C391.391022,204.711990 391.041046,201.641647 392.389008,199.845947 
	C394.504791,197.027466 394.053436,195.767227 391.475372,193.920486 
	C385.415283,189.579498 385.387360,187.606659 390.656799,182.330429 
	C391.527191,181.458862 392.391022,180.253525 392.525482,179.115875 
	C392.590149,178.568649 390.948730,177.819794 390.079895,177.162247 
	C388.743652,179.049240 387.208710,180.830872 386.134247,182.856705 
	C385.280243,184.466873 384.989227,186.375656 384.446167,188.158890 
	C377.570923,185.838654 377.631958,185.848831 376.472290,192.805771 
	C376.278290,193.969604 375.294495,195.001770 374.675629,196.094788 
	C374.267242,195.937393 373.858826,195.779984 373.450439,195.622589 
	C373.843048,191.598785 374.235626,187.574966 374.628204,183.551163 
	C374.109924,183.479111 373.591644,183.407059 373.073364,183.334991 
	C372.286041,186.287018 371.498749,189.239059 370.431274,193.241562 
	C366.894104,192.121201 363.417755,191.020081 359.968628,189.559967 
	C360.981995,186.868851 361.968140,184.536743 362.954285,182.204620 
z"/>
<path fill="#3D754E" opacity="1.000000" stroke="none" 
	d="
M294.113556,150.830887 
	C295.988892,152.611404 297.864258,154.391922 299.941589,156.838043 
	C301.799866,158.653412 303.456177,159.803177 305.112457,160.952942 
	C305.112457,160.952942 305.043671,160.956299 305.071228,161.288620 
	C307.782501,164.041031 310.345459,166.615128 313.182434,168.839722 
	C316.280487,171.269043 321.051270,172.073441 320.548615,177.330093 
	C318.827881,177.381546 317.505554,177.466019 316.188385,177.600403 
	C311.325867,178.096420 306.449066,179.137726 301.607361,178.991226 
	C294.364532,178.772064 287.146790,177.721863 279.918396,177.025146 
	C279.918396,177.025146 279.987610,177.009445 279.881805,176.756546 
	C279.457611,175.745911 279.139252,174.988159 278.614594,173.958923 
	C276.596893,172.843002 274.785522,171.998550 272.943542,171.134644 
	C272.912964,171.115173 272.882782,171.049255 272.781128,171.010712 
	C272.458466,170.926865 272.248383,170.959595 271.642456,171.031219 
	C268.797363,170.707352 266.358978,170.422653 263.920593,170.137939 
	C263.920593,170.137955 263.866211,170.159515 263.945374,169.765381 
	C263.964111,168.623108 263.903687,167.874969 263.850769,166.769577 
	C263.229340,165.258102 262.600403,164.103867 262.220581,162.781433 
	C263.313538,162.075012 264.157379,161.536758 265.000610,160.999252 
	C265.000000,161.000000 264.998779,161.001556 265.341797,160.926498 
	C268.134979,161.764099 271.581940,161.963608 272.843445,163.726761 
	C276.259430,168.501297 279.831360,168.971191 284.563385,166.044998 
	C279.436890,162.084457 281.798340,155.969421 280.306213,151.579010 
	C281.677124,149.144745 282.850281,147.061630 284.428467,144.969238 
	C285.913147,144.961563 286.992798,144.963181 288.072418,144.964783 
	C288.415863,145.034775 288.679871,145.218796 289.002686,146.033691 
	C289.678223,147.874588 289.937469,149.462646 290.853363,150.427124 
	C291.435883,151.040543 292.993286,150.728134 294.113556,150.830887 
z"/>
<path fill="#497755" opacity="1.000000" stroke="none" 
	d="
M390.990234,207.983307 
	C393.985962,207.217484 396.981720,206.451645 399.977448,205.685806 
	C400.172424,205.159561 400.367371,204.633316 400.562347,204.107056 
	C399.225098,203.560730 397.887878,203.014404 396.550659,202.468063 
	C396.945618,201.767380 397.340576,201.066696 397.735535,200.366013 
	C399.662384,201.100357 401.589233,201.834686 403.681030,203.138245 
	C403.565765,205.090256 403.285553,206.473083 403.005371,207.855896 
	C389.548920,216.046326 376.091003,224.453323 360.156586,226.784058 
	C341.411346,229.525925 323.575287,226.392136 307.133179,216.621597 
	C306.161835,216.044388 305.443634,215.041229 304.439117,213.876511 
	C305.497589,213.013824 306.724609,212.510910 308.215759,212.018585 
	C308.655640,212.035355 308.831360,212.041519 309.119843,212.341125 
	C310.156708,213.421280 311.080841,214.207993 312.324768,215.160675 
	C318.070190,216.245285 323.495789,217.163910 329.262817,218.233994 
	C334.376526,218.674866 338.669891,224.195389 343.949158,219.701324 
	C344.218445,219.472092 345.354218,220.335770 346.118927,220.595169 
	C347.172180,220.952423 348.337036,221.640396 349.313721,221.453461 
	C354.509796,220.458878 359.632599,218.457092 364.835876,218.260071 
	C374.376648,217.898834 381.505463,212.689438 389.339020,207.990662 
	C390.109650,207.988403 390.549927,207.985855 390.990234,207.983307 
z"/>
<path fill="#4C7C57" opacity="1.000000" stroke="none" 
	d="
M288.913818,114.205307 
	C283.617981,104.981384 278.590759,95.588882 272.941132,86.586990 
	C268.437866,79.411621 263.175446,72.712700 258.106812,65.142288 
	C256.842957,58.787670 253.942947,56.098721 247.771027,55.031509 
	C247.473297,55.012054 247.245026,54.876034 247.038269,53.988697 
	C246.960190,51.902943 246.930038,50.451927 247.323669,48.999290 
	C249.159668,48.981892 250.571915,48.966122 252.157562,49.231232 
	C253.255005,50.988098 254.179031,52.464073 255.220230,54.127178 
	C257.034607,52.174347 258.519897,50.575748 260.303772,48.842525 
	C269.453766,47.088512 277.630859,48.659374 284.876099,54.159000 
	C282.646790,57.726952 280.114380,55.243374 277.677094,55.218273 
	C274.254639,55.183025 269.263824,54.910557 267.777771,56.879013 
	C265.793304,59.507717 266.419891,64.181732 266.194061,67.993286 
	C266.154938,68.653008 267.505707,70.044281 268.118103,69.990952 
	C273.131836,69.554283 273.455963,73.864098 274.748932,76.723274 
	C276.880676,81.437195 278.301758,86.467361 280.198547,91.294998 
	C281.032776,93.418152 281.798492,96.056427 283.463348,97.274292 
	C288.644318,101.064331 289.030243,106.367805 289.134766,112.305817 
	C289.036896,113.192848 288.975372,113.699081 288.913818,114.205307 
z"/>
<path fill="#537B63" opacity="1.000000" stroke="none" 
	d="
M393.888855,170.902039 
	C392.528351,170.917831 391.167816,170.933640 389.103455,171.051758 
	C387.599213,171.768723 386.798828,172.383362 385.998444,172.998016 
	C379.182556,175.734634 372.366669,178.471252 365.266663,181.089355 
	C366.121887,179.723602 367.039154,178.089798 368.434509,177.288315 
	C384.106628,168.286423 400.781250,162.460068 418.924225,160.767365 
	C429.494263,159.781219 439.664307,160.902054 449.702820,164.032242 
	C450.200562,164.187439 450.555359,164.801010 450.994843,165.829956 
	C451.007996,166.636841 451.002991,166.814911 450.623352,167.037415 
	C447.497437,167.395508 444.746124,167.709167 441.590332,167.970062 
	C429.129578,164.622650 416.873688,165.227432 404.696320,166.608231 
	C400.979309,167.029678 397.485107,169.415710 393.888855,170.902039 
z"/>
<path fill="#4C795B" opacity="1.000000" stroke="none" 
	d="
M288.023590,144.614456 
	C286.992798,144.963181 285.913147,144.961563 284.421631,144.976913 
	C284.009735,144.993881 284.019958,144.980042 283.942932,144.658676 
	C282.926300,143.546661 281.986694,142.756012 281.031464,141.973953 
	C281.015839,141.982544 281.030701,141.950119 280.936890,141.637009 
	C279.911743,140.206726 278.980408,139.089569 277.962097,137.707962 
	C276.161469,136.090927 274.214203,134.948303 272.776001,133.348129 
	C267.493713,127.470940 262.015533,121.730171 259.162933,114.075966 
	C258.575134,112.498795 257.032532,111.161964 255.679855,110.007462 
	C251.921860,106.800018 248.121017,103.626526 244.149536,100.693596 
	C242.614624,99.560059 240.574768,99.110275 238.557678,98.261795 
	C237.884613,97.404015 236.926910,96.183487 235.643265,94.965027 
	C234.882721,94.973938 234.448090,94.980789 234.008392,94.992279 
	C234.003326,94.996933 234.001740,94.988205 233.843201,94.816513 
	C233.467087,94.421463 233.240570,94.207588 233.002853,94.001442 
	C233.000610,93.999695 233.000000,93.993721 233.007080,93.578583 
	C233.004944,91.779884 232.995712,90.396317 233.006638,88.978447 
	C233.026779,88.944138 233.067001,88.875481 233.273468,88.604050 
	C233.735184,87.953552 233.990417,87.574486 234.245667,87.195419 
	C234.752243,87.264481 235.258804,87.333542 236.009735,88.030151 
	C237.551956,89.424965 238.849823,90.192223 240.147690,90.959473 
	C247.397507,97.751915 255.166321,104.079399 261.770050,111.450645 
	C270.680206,121.396408 278.698120,132.141891 287.079529,142.559814 
	C287.474243,143.050430 287.680664,143.692566 288.023590,144.614456 
M238.495087,92.476814 
	C238.495087,92.476814 238.506561,92.512978 238.495087,92.476814 
z"/>
<path fill="#407550" opacity="1.000000" stroke="none" 
	d="
M335.003357,125.974594 
	C336.007812,129.006317 337.012268,132.038040 337.891907,135.807816 
	C338.303894,141.341766 338.121796,146.374634 339.600433,150.860092 
	C340.827606,154.582855 340.119232,156.017410 336.640869,156.726044 
	C332.643829,154.311783 328.818237,152.177078 324.825348,149.767731 
	C324.105713,148.356766 323.553406,147.220474 323.258362,145.858948 
	C332.215698,140.232193 329.201263,133.167969 326.228760,126.069283 
	C327.502777,126.069283 328.720917,126.069283 330.405273,126.069283 
	C329.295776,119.098412 328.241486,112.474220 327.473938,106.043739 
	C328.526794,107.679298 329.498962,109.050568 330.021271,110.575882 
	C331.768646,115.679092 333.355194,120.837395 335.003357,125.974594 
z"/>
<path fill="#487857" opacity="1.000000" stroke="none" 
	d="
M235.855743,147.022476 
	C235.567581,146.951279 235.335663,146.796036 234.910278,146.153610 
	C234.412842,145.502502 234.165131,145.254547 233.917419,145.006592 
	C233.917419,145.006592 233.991745,145.006683 233.826096,144.847198 
	C233.411789,144.453964 233.163132,144.220200 232.914490,143.986435 
	C232.914490,143.986435 233.000076,144.075317 232.960419,143.714188 
	C232.192413,136.457687 227.081680,133.213226 221.852615,130.067352 
	C221.852615,130.067352 221.938019,129.996094 221.835571,129.858551 
	C221.555481,129.474625 221.359909,129.243408 221.146423,129.027344 
	C220.826309,128.562012 220.506195,128.096695 220.213348,127.096008 
	C220.798019,125.706467 221.355423,124.852264 222.296387,123.986320 
	C226.941528,122.985771 229.726379,124.193039 230.553711,128.887344 
	C230.799667,130.282959 231.573761,131.742584 232.502853,132.835342 
	C238.749603,140.182495 245.095169,147.445816 251.437408,154.711243 
	C251.962967,155.313324 252.681122,156.133774 253.343277,156.166046 
	C257.041199,156.346313 256.650208,158.569260 255.546631,161.032562 
	C253.699722,161.041122 252.278717,161.037354 250.857712,161.033585 
	C250.560013,161.002151 250.320831,160.867081 249.937958,160.098724 
	C247.826248,155.782730 245.618423,152.355545 240.763046,152.115540 
	C240.763046,152.115540 240.898071,152.099136 240.832397,151.811462 
	C239.129730,150.023346 237.492737,148.522919 235.855743,147.022476 
z"/>
<path fill="#567E63" opacity="1.000000" stroke="none" 
	d="
M450.997986,166.992996 
	C451.002991,166.814911 451.007996,166.636841 451.019409,166.191620 
	C454.405151,164.765869 457.301361,166.071198 459.945465,167.920258 
	C465.398987,171.733887 470.833313,175.587784 476.067474,179.690598 
	C477.047363,180.458740 477.056152,182.465805 477.513092,183.901138 
	C476.153168,184.207260 474.805817,184.691971 473.431152,184.788818 
	C467.243744,185.224792 461.048523,185.550720 454.334442,185.588989 
	C453.213593,184.506485 452.614441,183.751297 452.191650,182.709259 
	C457.403320,177.210983 462.581024,179.889969 468.301025,182.067505 
	C467.745911,180.011322 466.895813,178.160767 465.479584,177.468597 
	C463.453094,176.478165 460.838257,176.698196 458.800903,175.721115 
	C456.972076,174.844025 455.435883,173.180008 454.045685,171.618286 
	C452.830872,170.253601 451.999023,168.547989 450.997986,166.992996 
z"/>
<path fill="#567B65" opacity="1.000000" stroke="none" 
	d="
M176.961487,96.167168 
	C169.913910,93.458809 162.045517,92.757019 155.620148,88.527603 
	C155.669449,87.997871 155.718735,87.468140 155.768036,86.938416 
	C163.197433,84.235931 170.463135,80.875801 178.092499,78.976616 
	C191.363922,75.672951 204.737305,76.493401 217.896301,80.313072 
	C219.132828,80.672012 220.415237,80.872917 221.552139,81.547539 
	C220.291382,82.295113 219.154831,82.642342 217.720673,82.838951 
	C213.945984,82.111702 210.468903,81.535072 206.685944,80.816833 
	C201.921524,80.455406 197.462982,80.235580 192.606979,80.059532 
	C189.810440,80.416504 187.411377,80.729706 184.600891,81.047409 
	C177.459320,83.272049 170.729172,85.492203 163.999023,87.712349 
	C164.119431,88.234169 164.239853,88.755997 164.360275,89.277817 
	C165.953262,90.040382 167.589523,90.725235 169.129608,91.582802 
	C171.771881,93.054100 174.354065,94.633278 176.961487,96.167168 
z"/>
<path fill="#4C795B" opacity="1.000000" stroke="none" 
	d="
M452.015320,182.996109 
	C452.614441,183.751297 453.213593,184.506485 453.913177,185.537613 
	C441.848419,187.496872 431.114471,193.064148 420.339447,198.419647 
	C414.652679,201.246124 409.229279,204.602432 403.346161,207.787720 
	C403.285553,206.473083 403.565765,205.090256 403.926147,203.364426 
	C404.006348,203.021408 404.502258,203.009384 405.079590,202.961823 
	C406.769379,202.286209 407.881805,201.658157 408.994202,201.030090 
	C410.434998,199.409088 411.875824,197.788086 413.935974,196.183685 
	C415.764435,195.786774 417.069763,195.544464 418.165375,194.928848 
	C422.037720,192.752975 425.637848,189.944885 429.717682,188.324158 
	C434.615692,186.378418 439.899261,185.403091 445.412872,183.998093 
	C447.878357,183.657791 449.946838,183.326950 452.015320,182.996109 
z"/>
<path fill="#5D816B" opacity="1.000000" stroke="none" 
	d="
M251.984146,48.950348 
	C250.571915,48.966122 249.159668,48.981892 246.954315,49.021553 
	C244.711121,49.385426 243.261063,49.725407 241.810989,50.065392 
	C239.408768,47.168404 242.305496,46.483624 243.860306,46.145222 
	C260.293243,42.568691 276.089874,44.052341 290.667816,52.997845 
	C295.239502,55.803188 299.443848,59.207138 303.690308,62.778442 
	C303.069641,63.474968 302.575073,63.730145 301.773560,63.827950 
	C295.990448,60.404594 290.514282,57.138603 285.038116,53.872616 
	C277.630859,48.659374 269.453766,47.088512 259.928040,48.797058 
	C256.830536,48.907593 254.407333,48.928974 251.984146,48.950348 
z"/>
<path fill="#487857" opacity="1.000000" stroke="none" 
	d="
M176.989594,96.110550 
	C174.354065,94.633278 171.771881,93.054100 169.129608,91.582802 
	C167.589523,90.725235 165.953262,90.040382 164.360275,89.277817 
	C164.239853,88.755997 164.119431,88.234169 163.999023,87.712349 
	C170.729172,85.492203 177.459320,83.272049 184.467621,81.333351 
	C183.558365,82.466858 182.339539,83.279160 181.193802,84.183983 
	C180.331421,84.865013 179.562759,85.664696 178.752365,86.411560 
	C179.726807,86.915466 180.655685,87.628357 181.690781,87.854042 
	C182.454742,88.020622 183.357269,87.551643 186.345078,86.891350 
	C180.135086,93.354332 184.658203,95.230904 188.342758,97.582527 
	C189.100342,98.066040 189.456116,99.179138 189.581238,100.004715 
	C188.055191,100.038963 186.944992,100.070549 185.834778,100.102142 
	C185.834778,100.102142 185.911575,99.985352 185.719757,99.868286 
	C184.994995,99.505379 184.462021,99.259552 183.929062,99.013725 
	C182.148300,98.388397 180.367523,97.763069 178.093063,96.839745 
	C177.364944,96.362885 177.135056,96.178383 176.909668,95.988258 
	C176.909668,95.988258 177.017715,96.053925 176.989594,96.110550 
z"/>
<path fill="#487857" opacity="1.000000" stroke="none" 
	d="
M307.951599,212.007996 
	C306.724609,212.510910 305.497589,213.013824 304.135620,213.710632 
	C302.188812,212.675797 300.376953,211.447021 298.269470,209.652130 
	C296.570435,207.088745 295.545471,204.565002 293.673615,203.219482 
	C290.967896,201.274628 290.956757,200.101608 293.775146,198.752090 
	C295.076904,198.128754 296.547729,197.550720 297.957672,197.510986 
	C307.296753,197.247772 316.640137,197.136261 325.708954,197.199280 
	C318.556641,199.153030 311.677490,200.882858 304.280884,202.742798 
	C305.327118,205.383530 306.639374,208.695770 307.951599,212.007996 
M300.888336,201.102448 
	C300.853668,201.344360 300.818970,201.586288 300.784302,201.828201 
	C300.919403,201.835022 301.054504,201.841827 301.189606,201.848648 
	C301.171692,201.604370 301.153778,201.360092 300.888336,201.102448 
M296.474243,201.504120 
	C296.474243,201.504120 296.514740,201.490952 296.474243,201.504120 
z"/>
<path fill="#5A7D65" opacity="1.000000" stroke="none" 
	d="
M186.039429,100.391937 
	C186.944992,100.070549 188.055191,100.038963 189.907227,100.014404 
	C191.083618,100.034058 191.518204,100.046692 192.169724,100.315338 
	C194.912170,102.059456 197.437698,103.547562 200.258301,105.216743 
	C204.660355,107.971428 208.767288,110.545021 213.042572,113.406418 
	C216.111557,117.128830 219.012192,120.563454 221.912827,123.998077 
	C221.355423,124.852264 220.798019,125.706467 220.101654,126.834724 
	C217.663834,124.974197 215.041031,123.094658 213.123871,120.659569 
	C205.946594,111.543297 196.432266,105.685074 186.039429,100.391937 
z"/>
<path fill="#5A7D65" opacity="1.000000" stroke="none" 
	d="
M325.982117,196.975357 
	C316.640137,197.136261 307.296753,197.247772 297.957672,197.510986 
	C296.547729,197.550720 295.076904,198.128754 293.775146,198.752090 
	C290.956757,200.101608 290.967896,201.274628 293.673615,203.219482 
	C295.545471,204.565002 296.570435,207.088745 297.980316,209.468475 
	C293.997742,206.097366 289.952820,202.399841 286.074219,198.535400 
	C285.421906,197.885468 284.945923,196.035858 285.344879,195.582916 
	C286.015686,194.821350 287.477722,194.358185 288.565033,194.427353 
	C295.107635,194.843567 301.640533,195.892883 308.172363,195.860580 
	C314.503021,195.829269 320.828461,194.750778 327.566223,194.506699 
	C327.973206,195.538345 327.970123,196.195526 327.636841,196.877686 
	C326.865082,196.926910 326.423615,196.951141 325.982117,196.975357 
M289.493408,198.477661 
	C289.493408,198.477661 289.502686,198.508850 289.493408,198.477661 
z"/>
<path fill="#537B63" opacity="1.000000" stroke="none" 
	d="
M352.972656,123.997589 
	C352.391266,125.169792 351.809875,126.341995 351.057556,127.793686 
	C349.922821,120.664040 348.958954,113.254906 348.390991,105.141312 
	C349.275726,98.972527 349.764496,93.508194 350.583252,88.039970 
	C351.569519,88.019882 352.225800,88.003700 353.001038,88.259552 
	C352.758087,91.693855 352.396149,94.856117 352.098022,98.327209 
	C352.438141,99.428917 352.714478,100.221786 352.986572,101.250504 
	C352.982330,101.486343 352.978333,101.958099 352.809845,102.314171 
	C352.751801,109.779358 352.862244,116.888474 352.972656,123.997589 
z"/>
<path fill="#5A7D65" opacity="1.000000" stroke="none" 
	d="
M390.112701,116.680115 
	C389.475250,116.062965 388.609314,115.069298 388.627899,114.092445 
	C388.751282,107.603798 389.879364,101.012161 389.049835,94.667244 
	C388.419403,89.845627 385.308411,85.367073 383.432159,80.683395 
	C382.047485,77.226921 380.873993,73.685844 379.710815,69.812027 
	C391.708069,83.186913 394.751984,98.910507 390.112701,116.680115 
z"/>
<path fill="#537B63" opacity="1.000000" stroke="none" 
	d="
M327.967072,196.852692 
	C327.970123,196.195526 327.973206,195.538345 327.979797,194.552628 
	C340.177032,192.413254 351.210144,187.304626 362.594238,182.187500 
	C361.968140,184.536743 360.981995,186.868851 359.976135,189.572052 
	C359.956390,189.943146 359.941162,189.947113 359.574768,189.903778 
	C357.896027,189.731598 356.467010,189.200958 355.291077,189.542236 
	C349.664185,191.175201 344.075317,192.958725 338.558289,194.927979 
	C337.787231,195.203201 337.489075,196.803238 336.600769,197.790771 
	C335.487946,197.824860 334.746338,197.858200 333.646637,197.763733 
	C331.514709,197.374832 329.740906,197.113754 327.967072,196.852692 
z"/>
<path fill="#5A7D65" opacity="1.000000" stroke="none" 
	d="
M336.812317,157.005600 
	C340.119232,156.017410 340.827606,154.582855 339.600433,150.860092 
	C338.121796,146.374634 338.303894,141.341766 337.935455,136.187698 
	C341.346161,144.036453 344.588470,152.243362 347.923492,160.684845 
	C340.804993,161.835037 334.377319,160.105865 328.488464,156.358627 
	C331.404022,156.360916 334.108154,156.683258 336.812317,157.005600 
z"/>
<path fill="#5A7D65" opacity="1.000000" stroke="none" 
	d="
M302.080475,63.985321 
	C302.575073,63.730145 303.069641,63.474968 303.813965,63.096958 
	C311.587311,67.099800 315.687561,74.315414 320.008118,81.182526 
	C322.772705,85.576553 324.644043,90.532585 326.727478,95.619720 
	C326.157593,96.015007 325.776093,96.027237 325.202820,95.808723 
	C323.089203,93.374504 321.167328,91.171036 319.195374,88.640694 
	C319.096985,87.875633 319.048706,87.437454 318.788574,86.726532 
	C317.389740,84.165718 316.522888,81.615326 314.924530,79.664230 
	C313.363770,77.759026 311.056061,76.465729 309.068359,74.586143 
	C309.030121,73.845909 308.999786,73.423347 308.969971,72.750816 
	C308.970490,72.500839 308.965576,72.000908 308.783722,71.715782 
	C306.428070,68.948875 304.254272,66.467094 302.080475,63.985321 
z"/>
<path fill="#537B63" opacity="1.000000" stroke="none" 
	d="
M320.949402,177.386017 
	C321.051270,172.073441 316.280487,171.269043 313.182434,168.839722 
	C310.345459,166.615128 307.782501,164.041031 305.071594,161.254181 
	C312.687225,164.366028 320.346588,167.809280 327.955414,171.360703 
	C329.120148,171.904343 330.051788,172.947418 331.091248,173.759491 
	C330.245087,174.639862 329.552185,175.840424 328.520905,176.334106 
	C326.355194,177.370819 324.011627,178.036118 321.356323,178.551575 
	C320.964142,177.961533 320.956757,177.673782 320.949402,177.386017 
z"/>
<path fill="#5A7D65" opacity="1.000000" stroke="none" 
	d="
M379.320007,68.927490 
	C378.239044,69.187447 376.298492,69.750015 375.793945,69.134811 
	C370.503448,62.684517 362.642700,62.058475 355.504181,59.779507 
	C354.752533,59.539551 354.115479,58.940746 353.457642,57.978260 
	C354.749786,56.937721 356.009583,56.427357 357.269379,55.916992 
	C366.200439,57.355671 373.121002,62.236610 379.320007,68.927490 
z"/>
<path fill="#5A7D65" opacity="1.000000" stroke="none" 
	d="
M320.548615,177.330093 
	C320.956757,177.673782 320.964142,177.961533 320.979584,178.469421 
	C311.334534,183.154877 301.327087,182.508636 291.294373,180.566406 
	C287.613770,179.853882 284.037354,178.603409 280.165894,177.311737 
	C287.146790,177.721863 294.364532,178.772064 301.607361,178.991226 
	C306.449066,179.137726 311.325867,178.096420 316.188385,177.600403 
	C317.505554,177.466019 318.827881,177.381546 320.548615,177.330093 
z"/>
<path fill="#5D816B" opacity="1.000000" stroke="none" 
	d="
M325.394592,96.039474 
	C325.776093,96.027237 326.157593,96.015007 326.824585,95.982300 
	C329.943054,105.810005 332.775970,115.658195 335.306091,125.740494 
	C333.355194,120.837395 331.768646,115.679092 330.021271,110.575882 
	C329.498962,109.050568 328.526794,107.679298 327.449768,106.043007 
	C327.138824,105.848557 327.098572,105.868103 327.019104,105.515411 
	C326.329346,102.773727 325.718994,100.384743 325.148651,97.669159 
	C325.257294,96.908203 325.325928,96.473839 325.394592,96.039474 
z"/>
<path fill="#537B63" opacity="1.000000" stroke="none" 
	d="
M336.640869,156.726044 
	C334.108154,156.683258 331.404022,156.360916 328.331116,156.024414 
	C322.992584,152.242905 318.022797,148.475540 313.036377,144.344849 
	C313.019775,143.981537 313.039642,143.963470 313.375549,144.064240 
	C317.471863,146.124130 321.232269,148.083252 324.992645,150.042389 
	C328.818237,152.177078 332.643829,154.311783 336.640869,156.726044 
z"/>
<path fill="#E1F4E4" opacity="1.000000" stroke="none" 
	d="
M350.253235,88.043869 
	C349.764496,93.508194 349.275726,98.972527 348.448883,104.673355 
	C348.403198,97.920837 348.904114,90.932304 348.920135,83.942650 
	C348.932373,78.611755 348.329926,73.279449 348.290466,67.493317 
	C348.579956,67.038849 349.033539,67.016884 349.033539,67.016884 
	C349.115356,67.557846 349.197174,68.098816 349.388947,69.220078 
	C349.675903,70.199219 349.852905,70.598061 350.009369,71.417595 
	C350.290009,74.242592 350.591125,76.646896 350.871429,79.383682 
	C350.959717,80.144615 351.068787,80.573067 351.058838,81.353592 
	C350.885681,82.445908 350.831543,83.186157 350.570740,84.216789 
	C350.327148,85.686073 350.290192,86.864975 350.253235,88.043869 
z"/>
<path fill="#4C795B" opacity="1.000000" stroke="none" 
	d="
M218.018280,82.989563 
	C219.154831,82.642342 220.291382,82.295113 221.777084,81.867981 
	C222.126236,81.788078 222.071869,81.825310 222.246155,82.096359 
	C223.660217,82.898895 224.899994,83.430382 226.139786,83.961868 
	C228.427979,84.813171 230.716171,85.664474 233.091583,87.253128 
	C233.141525,88.285484 233.104263,88.580482 233.067001,88.875481 
	C233.067001,88.875481 233.026779,88.944138 232.625031,88.925179 
	C227.490311,87.928673 222.757309,86.951126 218.019150,85.600998 
	C218.015411,84.482124 218.016846,83.735847 218.018280,82.989563 
z"/>
<path fill="#537B63" opacity="1.000000" stroke="none" 
	d="
M304.349457,135.643082 
	C301.011139,130.986084 297.672852,126.329071 294.202179,121.351807 
	C294.069824,121.031563 294.075562,120.982956 294.417511,121.025337 
	C295.843048,121.402763 296.926636,121.737801 298.137299,122.391327 
	C300.510376,126.805740 302.756409,130.901672 304.838715,135.158508 
	C304.675018,135.319427 304.349457,135.643082 304.349457,135.643082 
z"/>
<path fill="#5A7D65" opacity="1.000000" stroke="none" 
	d="
M222.016724,130.375534 
	C227.081680,133.213226 232.192413,136.457687 232.916046,143.757050 
	C229.334488,139.668610 225.757660,135.176163 222.016724,130.375534 
z"/>
<path fill="#688871" opacity="1.000000" stroke="none" 
	d="
M349.211090,66.749832 
	C349.033539,67.016884 348.579956,67.038849 348.354248,67.062195 
	C347.426636,64.318428 346.356934,61.575802 346.170380,58.774364 
	C346.069763,57.263668 347.480682,55.652306 348.622253,54.461472 
	C349.355743,55.894379 349.676666,56.952164 349.997559,58.009949 
	C349.970245,58.756031 349.942932,59.502110 349.801483,60.861282 
	C349.772125,62.316113 349.856903,63.157845 349.941650,63.999580 
	C349.757324,64.827316 349.572968,65.655052 349.211090,66.749832 
z"/>
<path fill="#5A7D65" opacity="1.000000" stroke="none" 
	d="
M264.078186,170.457031 
	C266.358978,170.422653 268.797363,170.707352 271.850952,171.033295 
	C272.466125,171.074524 272.882782,171.049255 272.882782,171.049255 
	C272.882782,171.049255 272.912964,171.115173 273.072754,171.404984 
	C275.095306,172.539993 276.958099,173.385193 278.820892,174.230408 
	C279.139252,174.988159 279.457611,175.745911 279.889618,176.791168 
	C274.747437,174.977829 269.491608,172.876968 264.078186,170.457031 
z"/>
<path fill="#5A7D65" opacity="1.000000" stroke="none" 
	d="
M251.032043,161.333832 
	C252.278717,161.037354 253.699722,161.041122 255.557205,161.026062 
	C255.993683,161.007217 255.987335,161.021866 256.130127,161.336395 
	C258.796356,163.476212 261.319824,165.301514 263.843262,167.126816 
	C263.903687,167.874969 263.964111,168.623108 263.939636,169.736725 
	C259.638580,167.279480 255.422470,164.456772 251.032043,161.333832 
z"/>
<path fill="#688871" opacity="1.000000" stroke="none" 
	d="
M247.935089,55.334354 
	C253.942947,56.098721 256.842957,58.787670 257.966614,64.847580 
	C254.679474,62.020969 251.389313,58.829086 247.935089,55.334354 
z"/>
<path fill="#537B63" opacity="1.000000" stroke="none" 
	d="
M313.009766,143.990479 
	C310.234009,141.408005 307.468231,138.816605 304.525970,135.934143 
	C304.349457,135.643082 304.675018,135.319427 305.197083,135.205444 
	C310.340271,136.249237 311.701477,140.096848 313.039642,143.963470 
	C313.039642,143.963470 313.019775,143.981537 313.009766,143.990479 
z"/>
<path fill="#5A7D65" opacity="1.000000" stroke="none" 
	d="
M240.840012,152.463959 
	C245.618423,152.355545 247.826248,155.782730 249.847122,159.908508 
	C246.944672,157.769424 243.930817,155.290909 240.840012,152.463959 
z"/>
<path fill="#467853" opacity="1.000000" stroke="none" 
	d="
M288.948547,114.403893 
	C288.975372,113.699081 289.036896,113.192848 289.445312,112.425896 
	C294.079041,113.715576 294.861328,116.968407 294.075562,120.982956 
	C294.075562,120.982956 294.069824,121.031563 294.046112,121.030357 
	C293.105499,119.912888 292.188599,118.796631 291.000000,117.137520 
	C290.179932,116.060806 289.631531,115.526947 289.083099,114.993080 
	C289.083099,114.993080 288.983215,114.602478 288.948547,114.403893 
z"/>
<path fill="#4C795B" opacity="1.000000" stroke="none" 
	d="
M293.971558,150.521820 
	C292.993286,150.728134 291.435883,151.040543 290.853363,150.427124 
	C289.937469,149.462646 289.678223,147.874588 289.078674,146.268616 
	C290.620758,147.395370 292.225159,148.804062 293.971558,150.521820 
z"/>
<path fill="#688871" opacity="1.000000" stroke="none" 
	d="
M241.954773,50.374523 
	C243.261063,49.725407 244.711121,49.385426 246.530548,49.023178 
	C246.930038,50.451927 246.960190,51.902943 246.981781,53.790909 
	C245.348343,53.046463 243.723450,51.865063 241.954773,50.374523 
z"/>
<path fill="#5A7D65" opacity="1.000000" stroke="none" 
	d="
M235.891510,147.381317 
	C237.492737,148.522919 239.129730,150.023346 240.830597,151.879440 
	C239.238739,150.736771 237.583008,149.238449 235.891510,147.381317 
z"/>
<path fill="#537B63" opacity="1.000000" stroke="none" 
	d="
M304.957062,160.649567 
	C303.456177,159.803177 301.799866,158.653412 300.086975,157.130402 
	C301.620789,157.953506 303.211243,159.149857 304.957062,160.649567 
z"/>
<path fill="#688871" opacity="1.000000" stroke="none" 
	d="
M357.089661,55.606171 
	C356.009583,56.427357 354.749786,56.937721 353.251770,57.689926 
	C353.013580,57.931763 352.540863,57.917164 352.181702,57.641190 
	C351.553955,56.636166 351.285339,55.907120 351.016754,55.178078 
	C352.981140,55.217167 354.945557,55.256256 357.089661,55.606171 
z"/>
<path fill="#5A7D65" opacity="1.000000" stroke="none" 
	d="
M350.753204,55.052998 
	C351.285339,55.907120 351.553955,56.636166 351.945618,57.627457 
	C351.608368,57.920841 351.148102,57.951984 350.342682,57.996536 
	C349.676666,56.952164 349.355743,55.894379 349.013153,54.500320 
	C349.490875,54.418674 349.990265,54.673294 350.753204,55.052998 
z"/>
<path fill="#567B65" opacity="1.000000" stroke="none" 
	d="
M239.979919,90.702072 
	C238.849823,90.192223 237.551956,89.424965 236.144135,88.261322 
	C237.293503,88.724846 238.552826,89.584755 239.979919,90.702072 
z"/>
<path fill="#567B65" opacity="1.000000" stroke="none" 
	d="
M225.984955,83.644798 
	C224.899994,83.430382 223.660217,82.898895 222.236725,82.064804 
	C223.312073,82.284050 224.571091,82.805893 225.984955,83.644798 
z"/>
<path fill="#4C7C57" opacity="1.000000" stroke="none" 
	d="
M289.106171,115.296967 
	C289.631531,115.526947 290.179932,116.060806 290.839844,116.866394 
	C290.343933,116.625687 289.736603,116.113266 289.106171,115.296967 
z"/>
<path fill="#5A7D65" opacity="1.000000" stroke="none" 
	d="
M184.089600,99.283150 
	C184.462021,99.259552 184.994995,99.505379 185.778168,99.906662 
	C185.435638,99.892265 184.842896,99.722420 184.089600,99.283150 
z"/>
<path fill="#5A7D65" opacity="1.000000" stroke="none" 
	d="
M233.970978,145.290955 
	C234.165131,145.254547 234.412842,145.502502 234.817261,145.962280 
	C234.657501,145.974518 234.341019,145.774918 233.970978,145.290955 
z"/>
<path fill="#567B65" opacity="1.000000" stroke="none" 
	d="
M176.995605,96.220963 
	C177.135056,96.178383 177.364944,96.362885 177.766449,96.686813 
	C177.558365,96.911255 177.274368,96.785187 176.995605,96.220963 
z"/>
<path fill="#567B65" opacity="1.000000" stroke="none" 
	d="
M233.273468,88.604050 
	C233.104263,88.580482 233.141525,88.285484 233.236969,87.547913 
	C233.295120,87.105354 233.775345,87.094322 234.010498,87.144867 
	C233.990417,87.574486 233.735184,87.953552 233.273468,88.604050 
z"/>
<path fill="#5A7D65" opacity="1.000000" stroke="none" 
	d="
M232.980957,144.260956 
	C233.163132,144.220200 233.411789,144.453964 233.825317,144.884354 
	C233.675934,144.899139 233.361679,144.717316 232.980957,144.260956 
z"/>
<path fill="#5A7D65" opacity="1.000000" stroke="none" 
	d="
M221.158768,129.283997 
	C221.359909,129.243408 221.555481,129.474625 221.871109,129.901337 
	C221.729767,129.901337 221.450439,129.720993 221.158768,129.283997 
z"/>
<path fill="#3D774A" opacity="1.000000" stroke="none" 
	d="
M352.990814,101.014664 
	C352.714478,100.221786 352.438141,99.428917 352.444336,98.315659 
	C354.648254,97.859764 356.545868,97.826538 355.751190,94.889145 
	C355.473419,93.862320 355.413818,92.363525 355.967285,91.590706 
	C360.021515,85.929710 359.652588,79.396584 359.940094,72.977798 
	C361.119385,73.744827 362.697021,74.253769 363.395721,75.332176 
	C364.888794,77.636642 366.048737,79.092018 368.778961,76.690277 
	C369.528687,76.030769 371.305481,76.538849 372.610992,76.511147 
	C372.246918,77.602600 371.852692,78.685112 371.525696,79.787567 
	C371.018402,81.497696 369.784729,83.456696 370.222900,84.894585 
	C371.465393,88.972137 373.399384,92.839005 375.207550,97.136986 
	C376.351593,96.916763 377.718964,96.653557 379.112335,96.385353 
	C380.003601,99.060715 380.787079,101.716621 381.769440,104.296791 
	C383.712616,109.400398 382.061829,117.643944 378.251801,121.342644 
	C374.947876,124.550026 374.943176,127.820763 377.343567,131.830048 
	C378.036713,132.987778 377.487427,135.805634 376.470795,136.892563 
	C373.818359,139.728470 371.233856,142.101196 374.437195,146.180161 
	C374.821228,146.669128 374.021820,148.198410 373.546692,149.131317 
	C373.475555,149.270981 371.628448,148.941437 371.513367,148.556641 
	C370.238220,144.292969 366.598358,143.201599 363.067871,141.792511 
	C362.080658,141.398499 361.410278,140.210632 360.296082,139.194366 
	C359.997650,139.001831 359.972992,138.980331 359.973022,138.980331 
	C359.924347,136.544937 360.607697,133.759933 359.651642,131.757874 
	C358.292328,128.911560 355.727936,126.640778 353.325562,124.060852 
	C352.862244,116.888474 352.751801,109.779358 352.952179,102.381790 
	C353.494690,102.002335 353.726349,101.911324 353.958038,101.820328 
	C353.635620,101.551773 353.313202,101.283218 352.990814,101.014664 
z"/>
<path fill="#467853" opacity="1.000000" stroke="none" 
	d="
M359.656189,73.124634 
	C359.652588,79.396584 360.021515,85.929710 355.967285,91.590706 
	C355.413818,92.363525 355.473419,93.862320 355.751190,94.889145 
	C356.545868,97.826538 354.648254,97.859764 352.380554,98.006836 
	C352.396149,94.856117 352.758087,91.693855 352.972717,87.920364 
	C352.142761,86.181572 351.460083,85.053993 350.777405,83.926407 
	C350.831543,83.186157 350.885681,82.445908 351.245544,81.265625 
	C351.766266,80.267647 351.981262,79.709724 352.215515,78.826172 
	C352.490265,77.682030 352.745758,76.863533 353.001221,76.045029 
	C355.124908,75.120506 357.248627,74.195984 359.656189,73.124634 
z"/>
<path fill="#688871" opacity="1.000000" stroke="none" 
	d="
M352.984894,75.666489 
	C352.745758,76.863533 352.490265,77.682030 351.888855,78.799316 
	C351.326050,79.082474 351.109131,79.066833 350.892242,79.051193 
	C350.591125,76.646896 350.290009,74.242592 350.338959,71.415039 
	C351.128418,70.983124 351.567749,70.974457 352.007111,70.965790 
	C352.327606,72.406509 352.648102,73.847229 352.984894,75.666489 
z"/>
<path fill="#5A7D65" opacity="1.000000" stroke="none" 
	d="
M350.077637,63.764656 
	C349.856903,63.157845 349.772125,62.316113 349.800476,61.234596 
	C350.013611,61.839787 350.113586,62.684761 350.077637,63.764656 
z"/>
<path fill="#5A7D65" opacity="1.000000" stroke="none" 
	d="
M351.825256,70.703033 
	C351.567749,70.974457 351.128418,70.983124 350.359467,70.994339 
	C349.852905,70.598061 349.675903,70.199219 349.498230,69.470901 
	C350.212860,69.574371 350.928131,70.007324 351.825256,70.703033 
z"/>
<path fill="#3D774A" opacity="1.000000" stroke="none" 
	d="
M360.008423,139.014084 
	C360.019196,139.026337 359.927979,139.020035 359.950500,139.000183 
	C359.972992,138.980331 359.997650,139.001831 360.008423,139.014084 
z"/>
<path fill="#367349" opacity="1.000000" stroke="none" 
	d="
M334.004730,197.891556 
	C334.746338,197.858200 335.487946,197.824860 336.485840,198.014465 
	C336.672943,198.386810 336.513031,198.562592 336.547699,198.681808 
	C337.941803,203.478012 342.580353,200.232971 345.262909,202.043762 
	C345.579102,202.257187 347.083557,200.355591 348.217163,199.805191 
	C349.543884,199.161026 351.375031,198.184143 352.454773,198.632950 
	C358.066711,200.965591 359.923065,199.931778 359.989044,193.897614 
	C360.003418,192.581100 359.958679,191.263962 359.941162,189.947113 
	C359.941162,189.947113 359.956390,189.943146 359.948883,189.931061 
	C363.417755,191.020081 366.894104,192.121201 370.431274,193.241562 
	C371.498749,189.239059 372.286041,186.287018 373.073364,183.334991 
	C373.591644,183.407059 374.109924,183.479111 374.628204,183.551163 
	C374.235626,187.574966 373.843048,191.598785 373.450439,195.622589 
	C373.858826,195.779984 374.267242,195.937393 374.675629,196.094788 
	C375.294495,195.001770 376.278290,193.969604 376.472290,192.805771 
	C377.631958,185.848831 377.570923,185.838654 384.446167,188.158890 
	C384.989227,186.375656 385.280243,184.466873 386.134247,182.856705 
	C387.208710,180.830872 388.743652,179.049240 390.079895,177.162247 
	C390.948730,177.819794 392.590149,178.568649 392.525482,179.115875 
	C392.391022,180.253525 391.527191,181.458862 390.656799,182.330429 
	C385.387360,187.606659 385.415283,189.579498 391.475372,193.920486 
	C394.053436,195.767227 394.504791,197.027466 392.389008,199.845947 
	C391.041046,201.641647 391.391022,204.711990 390.984955,207.597046 
	C390.549927,207.985855 390.109650,207.988403 389.276306,207.645523 
	C386.515717,200.909485 384.335846,206.778458 382.172211,207.504822 
	C377.418823,202.554382 375.073792,202.933670 372.471588,209.412903 
	C371.056366,212.936691 369.437408,212.312012 366.777374,210.906525 
	C364.470703,209.687744 361.762634,208.805267 359.176483,208.639572 
	C355.437012,208.399979 351.646454,208.926086 347.880585,209.170090 
	C347.428558,209.199371 346.994507,209.506149 346.363708,209.760193 
	C346.914154,210.913208 347.420898,211.974747 348.352386,213.925949 
	C343.090027,214.320007 338.544678,214.660370 333.784607,214.742554 
	C325.078339,206.822525 325.099640,204.711823 333.725983,198.297485 
	C333.850616,198.204819 333.913208,198.028732 334.004730,197.891556 
z"/>
<path fill="#3F7850" opacity="1.000000" stroke="none" 
	d="
M445.015869,184.007553 
	C439.899261,185.403091 434.615692,186.378418 429.717682,188.324158 
	C425.637848,189.944885 422.037720,192.752975 418.165375,194.928848 
	C417.069763,195.544464 415.764435,195.786774 414.278992,196.111084 
	C413.694733,194.076416 413.386780,192.130951 413.213104,191.033844 
	C417.251160,189.491501 420.994263,188.061829 425.094330,186.274323 
	C425.853790,185.687073 426.256226,185.457626 426.658691,185.228180 
	C426.113922,185.155075 425.569122,185.081970 425.024353,185.008881 
	C424.113037,183.895935 423.201721,182.782990 423.209045,182.791916 
	C427.245483,179.050232 430.631500,176.050476 433.794434,172.831528 
	C434.275604,172.341858 433.777618,169.943359 433.639313,169.934784 
	C431.796600,169.820786 429.760406,169.526016 428.123779,170.169708 
	C425.707062,171.120163 423.282410,172.472809 421.387604,174.223877 
	C418.865051,176.555069 416.848206,179.433502 414.451874,182.268799 
	C413.916382,181.212387 412.796722,179.003601 411.852875,177.141617 
	C410.057678,176.610672 408.486115,176.145859 406.914551,175.681061 
	C407.544830,174.541702 408.175110,173.402344 409.400757,171.186676 
	C407.057526,171.056641 404.025085,170.060211 403.221344,170.990158 
	C400.097992,174.603668 397.459259,172.983963 394.223358,171.029968 
	C397.485107,169.415710 400.979309,167.029678 404.696320,166.608231 
	C416.873688,165.227432 429.129578,164.622650 441.627930,168.314331 
	C441.266113,171.480469 440.462128,174.249573 439.571930,177.315720 
	C443.504578,177.262009 444.895111,180.109909 445.015869,184.007553 
z"/>
<path fill="#497755" opacity="1.000000" stroke="none" 
	d="
M408.652191,201.052628 
	C407.881805,201.658157 406.769379,202.286209 405.327576,202.956528 
	C406.102203,202.357574 407.206207,201.716370 408.652191,201.052628 
z"/>
<path fill="#3F7850" opacity="1.000000" stroke="none" 
	d="
M386.309021,172.932617 
	C386.798828,172.383362 387.599213,171.768723 388.695374,171.064423 
	C388.200623,171.605591 387.410126,172.236404 386.309021,172.932617 
z"/>
<path fill="#4C795B" opacity="1.000000" stroke="none" 
	d="
M425.020325,185.252380 
	C425.569122,185.081970 426.113922,185.155075 426.658691,185.228180 
	C426.256226,185.457626 425.853790,185.687073 425.230530,185.949707 
	C425.009766,185.982910 425.016266,185.495880 425.020325,185.252380 
z"/>
<path fill="#357247" opacity="1.000000" stroke="none" 
	d="
M222.296387,123.986328 
	C219.012192,120.563454 216.111557,117.128830 213.253143,113.115921 
	C214.252792,110.671249 215.210220,108.804848 216.167648,106.938454 
	C215.772995,106.716660 215.378342,106.494865 214.983688,106.273071 
	C213.811295,107.251480 212.638901,108.229897 212.242188,108.560966 
	C209.879547,106.962051 208.144745,105.796738 206.419098,104.618034 
	C204.166794,103.079575 201.921722,101.530502 199.673538,99.986000 
	C199.975433,99.514969 200.277328,99.043945 200.579224,98.572922 
	C202.583344,98.917969 204.587463,99.263016 207.203873,99.713478 
	C207.007431,95.801895 206.845367,92.574654 206.700562,89.690857 
	C210.404999,88.723640 213.699890,87.863365 217.306213,87.199135 
	C221.540161,89.415405 227.010635,88.553001 229.299881,93.798935 
	C229.520981,94.305603 231.719437,93.949379 233.000000,93.993721 
	C233.000000,93.993721 233.000610,93.999695 233.159668,94.174789 
	C233.535110,94.574745 233.762787,94.787514 234.001740,94.988205 
	C234.001740,94.988205 234.003326,94.996933 234.195374,95.087433 
	C234.914673,95.106277 235.441940,95.034615 235.969193,94.962959 
	C236.926910,96.183487 237.884613,97.404015 238.557678,98.261795 
	C240.574768,99.110275 242.614624,99.560059 244.149536,100.693596 
	C248.121017,103.626526 251.921860,106.800018 255.679855,110.007462 
	C257.032532,111.161964 258.575134,112.498795 259.162933,114.075966 
	C262.015533,121.730171 267.493713,127.470940 272.776001,133.348129 
	C274.214203,134.948303 276.161469,136.090927 277.790771,137.883377 
	C277.477570,138.555099 277.242859,138.780884 276.762817,138.929626 
	C274.431427,140.896606 272.339630,142.934586 269.493378,145.707596 
	C273.822571,145.804520 276.886780,146.048813 278.383911,142.003326 
	C279.518097,141.983551 280.274384,141.966843 281.030701,141.950119 
	C281.030701,141.950119 281.015839,141.982544 281.099792,142.299744 
	C282.129120,143.404648 283.074554,144.192352 284.019958,144.980042 
	C284.019958,144.980042 284.009735,144.993881 284.016602,144.986206 
	C282.850281,147.061630 281.677124,149.144745 280.306213,151.579010 
	C281.798340,155.969421 279.436890,162.084457 284.563385,166.044998 
	C279.831360,168.971191 276.259430,168.501297 272.843445,163.726761 
	C271.581940,161.963608 268.134979,161.764099 265.251404,160.672729 
	C264.269043,160.016113 263.720123,159.538193 263.171173,159.060272 
	C263.011414,159.317978 262.851654,159.575684 262.691864,159.833389 
	C263.461670,160.221756 264.231445,160.610138 265.001221,160.998505 
	C264.157379,161.536758 263.313538,162.075012 261.880066,162.710876 
	C259.522766,162.212967 257.755035,161.617416 255.987335,161.021866 
	C255.987335,161.021866 255.993683,161.007217 255.983093,161.013702 
	C256.650208,158.569260 257.041199,156.346313 253.343277,156.166046 
	C252.681122,156.133774 251.962967,155.313324 251.437408,154.711243 
	C245.095169,147.445816 238.749603,140.182495 232.502853,132.835342 
	C231.573761,131.742584 230.799667,130.282959 230.553711,128.887344 
	C229.726379,124.193039 226.941528,122.985771 222.296387,123.986328 
z"/>
<path fill="#487857" opacity="1.000000" stroke="none" 
	d="
M256.130127,161.336395 
	C257.755035,161.617416 259.522766,162.212967 261.630951,162.879074 
	C262.600403,164.103867 263.229340,165.258102 263.850769,166.769577 
	C261.319824,165.301514 258.796356,163.476212 256.130127,161.336395 
z"/>
<path fill="#487857" opacity="1.000000" stroke="none" 
	d="
M278.614594,173.958923 
	C276.958099,173.385193 275.095306,172.539993 273.103333,171.424438 
	C274.785522,171.998550 276.596893,172.843002 278.614594,173.958923 
z"/>
<path fill="#487857" opacity="1.000000" stroke="none" 
	d="
M272.781128,171.010712 
	C272.882782,171.049255 272.466125,171.074524 272.257629,171.072449 
	C272.248383,170.959595 272.458466,170.926865 272.781128,171.010712 
z"/>
<path fill="#3B764C" opacity="1.000000" stroke="none" 
	d="
M333.999329,215.000732 
	C338.544678,214.660370 343.090027,214.320007 348.352386,213.925949 
	C347.420898,211.974747 346.914154,210.913208 346.363708,209.760193 
	C346.994507,209.506149 347.428558,209.199371 347.880585,209.170090 
	C351.646454,208.926086 355.437012,208.399979 359.176483,208.639572 
	C361.762634,208.805267 364.470703,209.687744 366.777374,210.906525 
	C369.437408,212.312012 371.056366,212.936691 372.471588,209.412903 
	C375.073792,202.933670 377.418823,202.554382 382.172211,207.504822 
	C384.335846,206.778458 386.515717,200.909485 388.945984,207.645233 
	C381.505463,212.689438 374.376648,217.898834 364.835876,218.260071 
	C359.632599,218.457092 354.509796,220.458878 349.313721,221.453461 
	C348.337036,221.640396 347.172180,220.952423 346.118927,220.595169 
	C345.354218,220.335770 344.218445,219.472092 343.949158,219.701324 
	C338.669891,224.195389 334.376526,218.674866 329.522949,218.017975 
	C330.960876,216.767258 332.480103,215.884003 333.999329,215.000732 
z"/>
<path fill="#39764D" opacity="1.000000" stroke="none" 
	d="
M333.784607,214.742569 
	C332.480103,215.884003 330.960876,216.767258 329.181519,217.866531 
	C323.495789,217.163910 318.070190,216.245285 312.246338,214.840485 
	C310.901093,213.585434 309.954102,212.816574 309.007111,212.047699 
	C308.831360,212.041519 308.655640,212.035355 308.215759,212.018585 
	C306.639374,208.695770 305.327118,205.383530 304.280884,202.742798 
	C311.677490,200.882858 318.556641,199.153030 325.708954,197.199280 
	C326.423615,196.951141 326.865082,196.926910 327.636841,196.877686 
	C329.740906,197.113754 331.514709,197.374832 333.646637,197.763733 
	C333.913208,198.028732 333.850616,198.204819 333.725983,198.297485 
	C325.099640,204.711823 325.078339,206.822525 333.784607,214.742569 
z"/>
<path fill="#487857" opacity="1.000000" stroke="none" 
	d="
M309.119843,212.341125 
	C309.954102,212.816574 310.901093,213.585434 311.926544,214.674515 
	C311.080841,214.207993 310.156708,213.421280 309.119843,212.341125 
z"/>
<path fill="#3E774C" opacity="1.000000" stroke="none" 
	d="
M294.417511,121.025337 
	C294.861328,116.968407 294.079041,113.715576 289.481598,112.045090 
	C289.030243,106.367805 288.644318,101.064331 283.463348,97.274292 
	C281.798492,96.056427 281.032776,93.418152 280.198547,91.294998 
	C278.301758,86.467361 276.880676,81.437195 274.748932,76.723274 
	C273.455963,73.864098 273.131836,69.554283 268.118103,69.990952 
	C267.505707,70.044281 266.154938,68.653008 266.194061,67.993286 
	C266.419891,64.181732 265.793304,59.507717 267.777771,56.879013 
	C269.263824,54.910557 274.254639,55.183025 277.677094,55.218273 
	C280.114380,55.243374 282.646790,57.726952 284.876099,54.159000 
	C290.514282,57.138603 295.990448,60.404594 301.773560,63.827950 
	C304.254272,66.467094 306.428070,68.948875 308.669312,71.773499 
	C308.652802,72.220413 308.476837,72.381187 308.500214,72.419167 
	C308.629852,72.629547 308.807922,72.810059 308.969421,73.000793 
	C308.999786,73.423347 309.030121,73.845909 308.878479,74.883865 
	C308.130981,76.997498 307.565491,78.495750 306.711182,80.052078 
	C306.092804,80.090118 305.747498,80.127258 305.435944,80.041649 
	C298.921661,78.251633 298.898529,78.368538 298.040192,84.767647 
	C297.722015,87.139740 296.692047,89.343407 293.331940,87.894691 
	C292.407501,87.496124 291.102692,87.979752 289.972412,88.058578 
	C290.177460,89.218048 290.217438,90.440941 290.631989,91.519920 
	C291.086212,92.702118 292.608917,93.910347 292.406677,94.830391 
	C291.649353,98.275597 292.146820,100.708061 296.117676,101.171776 
	C293.374573,108.545830 294.617401,113.187546 300.092102,118.040527 
	C301.285583,119.098465 301.994354,120.703209 302.518433,122.046104 
	C300.743713,122.048347 299.376984,122.060593 298.010223,122.072838 
	C296.926636,121.737801 295.843048,121.402763 294.417511,121.025337 
M270.536865,64.899101 
	C270.395996,65.256348 270.255157,65.613594 270.114319,65.970840 
	C270.264008,66.002281 270.539734,66.074768 270.544830,66.059143 
	C270.662262,65.698517 270.750214,65.328300 270.536865,64.899101 
z"/>
<path fill="#4D7E58" opacity="1.000000" stroke="none" 
	d="
M252.157562,49.231236 
	C254.407333,48.928974 256.830536,48.907593 259.629456,48.931683 
	C258.519897,50.575748 257.034607,52.174347 255.220230,54.127178 
	C254.179031,52.464073 253.255005,50.988098 252.157562,49.231236 
z"/>
<path fill="#487857" opacity="1.000000" stroke="none" 
	d="
M445.412872,183.998093 
	C444.895111,180.109909 443.504578,177.262009 439.571930,177.315720 
	C440.462128,174.249573 441.266113,171.480469 442.032471,168.367096 
	C444.746124,167.709167 447.497437,167.395508 450.623352,167.037415 
	C451.999023,168.547989 452.830872,170.253601 454.045685,171.618286 
	C455.435883,173.180008 456.972076,174.844025 458.800903,175.721115 
	C460.838257,176.698196 463.453094,176.478165 465.479584,177.468597 
	C466.895813,178.160767 467.745911,180.011322 468.301025,182.067505 
	C462.581024,179.889969 457.403320,177.210983 452.191650,182.709259 
	C449.946838,183.326950 447.878357,183.657791 445.412872,183.998093 
z"/>
<path fill="#3F7850" opacity="1.000000" stroke="none" 
	d="
M233.007080,93.578583 
	C231.719437,93.949379 229.520981,94.305603 229.299881,93.798935 
	C227.010635,88.553001 221.540161,89.415405 217.482697,87.032684 
	C217.579849,86.444389 217.805374,86.212189 218.024323,85.973587 
	C222.757309,86.951126 227.490311,87.928673 232.604889,88.959488 
	C232.995712,90.396317 233.004944,91.779884 233.007080,93.578583 
z"/>
<path fill="#3D754E" opacity="1.000000" stroke="none" 
	d="
M277.002350,139.000610 
	C277.242859,138.780884 277.477570,138.555099 277.877777,138.147812 
	C278.980408,139.089569 279.911743,140.206726 280.936890,141.637009 
	C280.274384,141.966843 279.518097,141.983551 278.261658,141.710052 
	C277.508484,140.613434 277.255432,139.807022 277.002350,139.000610 
z"/>
<path fill="#3D754E" opacity="1.000000" stroke="none" 
	d="
M283.942932,144.658676 
	C283.074554,144.192352 282.129120,143.404648 281.115417,142.291168 
	C281.986694,142.756012 282.926300,143.546661 283.942932,144.658676 
z"/>
<path fill="#3F7850" opacity="1.000000" stroke="none" 
	d="
M235.643265,94.965027 
	C235.441940,95.034615 234.914673,95.106277 234.200439,95.082787 
	C234.448090,94.980789 234.882721,94.973938 235.643265,94.965027 
z"/>
<path fill="#567B65" opacity="1.000000" stroke="none" 
	d="
M238.500824,92.494896 
	C238.506561,92.512978 238.495087,92.476814 238.500824,92.494896 
z"/>
<path fill="#3F7850" opacity="1.000000" stroke="none" 
	d="
M233.843201,94.816513 
	C233.762787,94.787514 233.535110,94.574745 233.161896,94.176537 
	C233.240570,94.207588 233.467087,94.421463 233.843201,94.816513 
z"/>
<path fill="#377447" opacity="1.000000" stroke="none" 
	d="
M302.926361,122.056107 
	C301.994354,120.703209 301.285583,119.098465 300.092102,118.040527 
	C294.617401,113.187546 293.374573,108.545830 296.117676,101.171776 
	C292.146820,100.708061 291.649353,98.275597 292.406677,94.830391 
	C292.608917,93.910347 291.086212,92.702118 290.631989,91.519920 
	C290.217438,90.440941 290.177460,89.218048 289.972412,88.058578 
	C291.102692,87.979752 292.407501,87.496124 293.331940,87.894691 
	C296.692047,89.343407 297.722015,87.139740 298.040192,84.767647 
	C298.898529,78.368538 298.921661,78.251633 305.435944,80.041649 
	C305.747498,80.127258 306.092804,80.090118 307.032288,80.155792 
	C314.034302,81.520653 311.077240,85.674370 309.611023,90.074852 
	C312.960266,89.649063 315.486145,89.327957 317.897369,89.300903 
	C314.938446,95.255798 319.395477,95.840858 322.970947,97.433502 
	C322.454803,100.314171 321.929657,102.806358 321.284515,105.868103 
	C322.647491,105.868103 324.873047,105.868103 327.098572,105.868103 
	C327.098572,105.868103 327.138824,105.848557 327.162994,105.849289 
	C328.241486,112.474220 329.295776,119.098412 330.405273,126.069283 
	C328.720917,126.069283 327.502777,126.069283 326.228760,126.069283 
	C329.201263,133.167969 332.215698,140.232193 322.916962,145.748749 
	C318.712372,142.601578 317.868164,138.477707 318.231659,133.806915 
	C318.338623,132.432846 317.438477,130.980392 316.999878,129.563873 
	C316.217438,130.674255 315.544830,131.888336 314.621674,132.865829 
	C313.697662,133.844193 311.692474,135.419556 311.581268,135.308716 
	C309.333191,133.067535 307.055481,130.779221 305.287476,128.160263 
	C304.097504,126.397560 303.686096,124.109261 302.926361,122.056107 
z"/>
<path fill="#467853" opacity="1.000000" stroke="none" 
	d="
M302.518433,122.046097 
	C303.686096,124.109261 304.097504,126.397560 305.287476,128.160263 
	C307.055481,130.779221 309.333191,133.067535 311.581268,135.308716 
	C311.692474,135.419556 313.697662,133.844193 314.621674,132.865829 
	C315.544830,131.888336 316.217438,130.674255 316.999878,129.563873 
	C317.438477,130.980392 318.338623,132.432846 318.231659,133.806915 
	C317.868164,138.477707 318.712372,142.601578 322.659729,145.973969 
	C323.553406,147.220474 324.105713,148.356766 324.825348,149.767731 
	C321.232269,148.083252 317.471863,146.124130 313.375549,144.064240 
	C311.701477,140.096848 310.340271,136.249237 305.360779,135.044525 
	C302.756409,130.901672 300.510376,126.805740 298.137299,122.391327 
	C299.376984,122.060593 300.743713,122.048347 302.518433,122.046097 
z"/>
<path fill="#3D754E" opacity="1.000000" stroke="none" 
	d="
M218.019150,85.600998 
	C217.805374,86.212189 217.579849,86.444389 217.171234,86.836639 
	C213.699890,87.863365 210.404999,88.723640 206.700562,89.690857 
	C206.845367,92.574654 207.007431,95.801895 207.203873,99.713478 
	C204.587463,99.263016 202.583344,98.917969 200.579224,98.572922 
	C200.277328,99.043945 199.975433,99.514969 199.673538,99.986000 
	C201.921722,101.530502 204.166794,103.079575 206.419098,104.618034 
	C208.144745,105.796738 209.879547,106.962051 212.242188,108.560966 
	C212.638901,108.229897 213.811295,107.251480 214.983688,106.273071 
	C215.378342,106.494865 215.772995,106.716660 216.167648,106.938454 
	C215.210220,108.804848 214.252792,110.671249 213.084808,112.828133 
	C208.767288,110.545021 204.660355,107.971428 200.151733,104.884521 
	C197.150986,102.933914 194.551895,101.496613 191.952789,100.059319 
	C191.518204,100.046692 191.083618,100.034058 190.323059,100.011734 
	C189.456116,99.179138 189.100342,98.066040 188.342758,97.582527 
	C184.658203,95.230904 180.135086,93.354332 186.345078,86.891350 
	C183.357269,87.551643 182.454742,88.020622 181.690781,87.854042 
	C180.655685,87.628357 179.726807,86.915466 178.752365,86.411560 
	C179.562759,85.664696 180.331421,84.865013 181.193802,84.183983 
	C182.339539,83.279160 183.558365,82.466858 184.879044,81.328857 
	C187.411377,80.729706 189.810440,80.416504 192.822266,80.283531 
	C196.837814,81.393280 200.204651,82.540749 203.666580,83.111588 
	C204.630447,83.270515 205.875687,81.723061 206.991837,80.958435 
	C210.468903,81.535072 213.945984,82.111702 217.720657,82.838959 
	C218.016846,83.735847 218.015411,84.482124 218.019150,85.600998 
z"/>
<path fill="#487857" opacity="1.000000" stroke="none" 
	d="
M206.685944,80.816833 
	C205.875687,81.723061 204.630447,83.270515 203.666580,83.111588 
	C200.204651,82.540749 196.837814,81.393280 193.219742,80.239761 
	C197.462982,80.235580 201.921524,80.455406 206.685944,80.816833 
z"/>
<path fill="#39764D" opacity="1.000000" stroke="none" 
	d="
M301.012085,201.109131 
	C301.153778,201.360092 301.171692,201.604370 301.189606,201.848648 
	C301.054504,201.841827 300.919403,201.835022 300.784302,201.828201 
	C300.818970,201.586288 300.853668,201.344360 301.012085,201.109131 
z"/>
<path fill="#39764D" opacity="1.000000" stroke="none" 
	d="
M296.494507,201.497528 
	C296.514740,201.490952 296.474243,201.504120 296.494507,201.497528 
z"/>
<path fill="#487857" opacity="1.000000" stroke="none" 
	d="
M192.169724,100.315338 
	C194.551895,101.496613 197.150986,102.933914 199.856644,104.703438 
	C197.437698,103.547562 194.912170,102.059456 192.169724,100.315338 
z"/>
<path fill="#487857" opacity="1.000000" stroke="none" 
	d="
M289.498047,198.493256 
	C289.502686,198.508850 289.493408,198.477661 289.498047,198.493256 
z"/>
<path fill="#688871" opacity="1.000000" stroke="none" 
	d="
M350.570740,84.216797 
	C351.460083,85.053993 352.142761,86.181572 352.853760,87.648331 
	C352.225800,88.003700 351.569519,88.019882 350.583252,88.039970 
	C350.290192,86.864975 350.327148,85.686073 350.570740,84.216797 
z"/>
<path fill="#467853" opacity="1.000000" stroke="none" 
	d="
M352.986572,101.250504 
	C353.313202,101.283218 353.635620,101.551773 353.958038,101.820328 
	C353.726349,101.911324 353.494690,102.002335 353.120667,102.025726 
	C352.978333,101.958099 352.982330,101.486343 352.986572,101.250504 
z"/>
<path fill="#3B764C" opacity="1.000000" stroke="none" 
	d="
M359.574768,189.903778 
	C359.958679,191.263962 360.003418,192.581100 359.989044,193.897614 
	C359.923065,199.931778 358.066711,200.965591 352.454773,198.632950 
	C351.375031,198.184143 349.543884,199.161026 348.217163,199.805191 
	C347.083557,200.355591 345.579102,202.257187 345.262909,202.043762 
	C342.580353,200.232971 337.941803,203.478012 336.547699,198.681808 
	C336.513031,198.562592 336.672943,198.386810 336.857056,198.013718 
	C337.489075,196.803238 337.787231,195.203201 338.558289,194.927979 
	C344.075317,192.958725 349.664185,191.175201 355.291077,189.542236 
	C356.467010,189.200958 357.896027,189.731598 359.574768,189.903778 
M357.346954,193.226410 
	C357.386566,193.003647 357.426147,192.780884 357.465759,192.558121 
	C357.354156,192.761444 357.242523,192.964752 357.346954,193.226410 
z"/>
<path fill="#3F7850" opacity="1.000000" stroke="none" 
	d="
M318.011993,89.006851 
	C315.486145,89.327957 312.960266,89.649063 309.611023,90.074852 
	C311.077240,85.674370 314.034302,81.520653 307.321106,80.097717 
	C307.565491,78.495750 308.130981,76.997498 308.886353,75.201538 
	C311.056061,76.465729 313.363770,77.759026 314.924530,79.664230 
	C316.522888,81.615326 317.389740,84.165718 318.634094,86.962524 
	C318.462189,87.985336 318.232941,88.499413 318.001312,89.007538 
	C317.998932,89.001579 318.011993,89.006859 318.011993,89.006851 
z"/>
<path fill="#467853" opacity="1.000000" stroke="none" 
	d="
M322.961945,97.045029 
	C319.395477,95.840858 314.938446,95.255798 317.897369,89.300903 
	C318.011993,89.006859 317.998932,89.001579 318.311859,88.998764 
	C318.831665,88.986488 319.038574,88.977028 319.245483,88.967567 
	C321.167328,91.171036 323.089203,93.374504 325.202820,95.808723 
	C325.325928,96.473839 325.257294,96.908203 324.878693,97.549606 
	C324.033142,97.519447 323.497559,97.282234 322.961945,97.045029 
z"/>
<path fill="#3F7850" opacity="1.000000" stroke="none" 
	d="
M308.969971,72.750824 
	C308.807922,72.810059 308.629852,72.629547 308.500214,72.419167 
	C308.476837,72.381187 308.652802,72.220413 308.851135,72.058624 
	C308.965576,72.000908 308.970490,72.500839 308.969971,72.750824 
z"/>
<path fill="#377447" opacity="1.000000" stroke="none" 
	d="
M319.195374,88.640694 
	C319.038574,88.977028 318.831665,88.986488 318.314240,89.004715 
	C318.232941,88.499413 318.462189,87.985336 318.845947,87.235260 
	C319.048706,87.437454 319.096985,87.875633 319.195374,88.640694 
z"/>
<path fill="#407550" opacity="1.000000" stroke="none" 
	d="
M322.970947,97.433510 
	C323.497559,97.282234 324.033142,97.519447 324.838715,97.876205 
	C325.718994,100.384743 326.329346,102.773727 327.019104,105.515411 
	C324.873047,105.868103 322.647491,105.868103 321.284515,105.868103 
	C321.929657,102.806358 322.454803,100.314171 322.970947,97.433510 
z"/>
<path fill="#4D7E58" opacity="1.000000" stroke="none" 
	d="
M350.871429,79.383682 
	C351.109131,79.066833 351.326050,79.082474 351.869598,79.124954 
	C351.981262,79.709724 351.766266,80.267647 351.364563,80.913544 
	C351.068787,80.573067 350.959717,80.144615 350.871429,79.383682 
z"/>
<path fill="#39764D" opacity="1.000000" stroke="none" 
	d="
M276.762817,138.929626 
	C277.255432,139.807022 277.508484,140.613434 277.883820,141.713104 
	C276.886780,146.048813 273.822571,145.804520 269.493378,145.707596 
	C272.339630,142.934586 274.431427,140.896606 276.762817,138.929626 
z"/>
<path fill="#3D754E" opacity="1.000000" stroke="none" 
	d="
M265.000610,160.999252 
	C264.231445,160.610138 263.461670,160.221756 262.691864,159.833389 
	C262.851654,159.575684 263.011414,159.317978 263.171173,159.060272 
	C263.720123,159.538193 264.269043,160.016113 264.908386,160.747803 
	C264.998779,161.001556 265.000000,161.000000 265.000610,160.999252 
z"/>
<path fill="#4C7C57" opacity="1.000000" stroke="none" 
	d="
M270.690247,64.929482 
	C270.750214,65.328300 270.662262,65.698517 270.544830,66.059143 
	C270.539734,66.074768 270.264008,66.002281 270.114319,65.970840 
	C270.255157,65.613594 270.395996,65.256348 270.690247,64.929482 
z"/>
<path fill="#367349" opacity="1.000000" stroke="none" 
	d="
M357.238922,193.197235 
	C357.242523,192.964752 357.354156,192.761444 357.465759,192.558121 
	C357.426147,192.780884 357.386566,193.003647 357.238922,193.197235 
z"/>
</svg>