<svg version="1.1" id="Layer_1" xmlns="http://www.w3.org/2000/svg" 
xmlns:xlink="http://www.w3.org/1999/xlink" x="0px" y="0px"
	 width="50%" viewBox="0 0 196 66" enable-background="new 0 0 196 66" xml:space="preserve">
<path fill="none" opacity="1.000000" stroke="none" 
	d="
M57.000000,67.000000 
	C38.365410,67.000000 19.730818,67.000000 1.048114,67.000000 
	C1.048114,45.069965 1.048114,23.139803 1.048114,1.000000 
	C45.020672,1.000000 89.041679,1.000000 133.670410,1.369277 
	C132.568268,2.848444 130.858414,3.958333 129.089478,5.263906 
	C129.030411,5.459590 128.962250,5.864531 128.587540,5.915440 
	C127.106918,6.625235 126.001007,7.284121 124.924927,7.948476 
	C124.954773,7.953945 124.939400,7.895247 124.493118,7.928398 
	C118.706390,8.704262 113.355080,9.381315 108.037613,10.262652 
	C107.267197,10.390344 106.659088,11.497363 105.574615,12.114119 
	C102.718719,13.038722 100.264084,14.000405 97.616631,14.974689 
	C97.423813,14.987291 97.057701,15.111073 96.628876,15.068617 
	C92.670876,14.596386 89.412010,15.024903 86.647644,18.102377 
	C84.567352,19.472658 82.776787,20.683968 80.608780,21.904211 
	C67.563629,29.936481 52.571922,31.534367 38.465309,36.906746 
	C30.973515,37.043243 23.942272,37.125736 16.522778,37.139862 
	C12.159447,35.729095 8.184368,34.386700 4.209290,33.044304 
	C3.942604,33.382759 3.675919,33.721210 3.409234,34.059666 
	C7.520126,39.709942 11.716959,45.284908 18.013435,49.469830 
	C22.113085,52.122303 26.052219,54.465660 30.217606,56.885185 
	C30.443857,56.961346 30.879164,57.157486 31.005535,57.465626 
	C32.082119,58.137783 33.032330,58.501804 34.208069,58.944019 
	C34.433590,59.022213 34.889790,59.162888 34.996948,59.384781 
	C35.104111,59.606678 35.493862,59.908092 35.493862,59.908092 
	C35.493862,59.908092 35.985645,59.878323 36.363815,59.925419 
	C43.038784,61.820297 49.343201,63.643127 55.619205,65.559036 
	C56.174362,65.728508 56.544128,66.505287 57.000000,67.000000 
z"/>
<path fill="none" opacity="1.000000" stroke="none" 
	d="
M197.000000,20.000000 
	C197.000000,35.625019 197.000000,51.250042 197.000000,67.000000 
	C157.979187,67.000000 118.958252,67.000000 79.410660,66.598152 
	C79.391403,65.836311 79.849609,65.302841 80.413750,65.142822 
	C86.961906,63.285458 93.909538,62.305511 99.990944,59.465092 
	C107.971764,55.737526 115.273140,50.555244 123.063217,45.703411 
	C124.174698,44.606956 125.089699,43.805695 126.343849,42.954933 
	C127.660881,42.146549 128.638763,41.387661 129.945282,40.413185 
	C135.505081,38.472527 140.762070,36.821411 145.961197,35.004738 
	C153.430344,32.394875 160.843521,29.625042 168.308029,27.001583 
	C172.206955,25.631271 176.164551,24.427889 180.521591,23.092335 
	C184.513580,22.674297 188.120636,22.528725 191.628677,21.862186 
	C193.424164,21.521038 195.790192,20.542976 193.477814,17.920835 
	C191.403854,15.569043 189.244049,13.292958 186.949783,10.666797 
	C182.526169,8.322390 178.274887,6.294658 173.682678,4.209750 
	C172.882339,4.174418 172.422882,4.196263 171.663788,4.023882 
	C170.909424,2.886439 170.454712,1.943220 170.000000,1.000001 
	C178.908783,1.000000 187.817551,1.000000 197.000000,1.000000 
	C197.000000,6.349950 197.000000,11.704522 196.642426,17.533813 
	C196.523239,18.672354 196.761627,19.336178 197.000000,20.000000 
z"/>
<path fill="#4E7657" opacity="1.000000" stroke="none" 
	d="
M122.866737,45.998604 
	C115.273140,50.555244 107.971764,55.737526 99.990944,59.465092 
	C93.909538,62.305511 86.961906,63.285458 80.413750,65.142822 
	C79.849609,65.302841 79.391403,65.836311 78.942001,66.598152 
	C71.979050,67.000000 64.958107,67.000000 57.468578,67.000000 
	C56.544128,66.505287 56.174362,65.728508 55.619205,65.559036 
	C49.343201,63.643127 43.038784,61.820297 36.290405,59.804581 
	C35.522484,59.478729 35.206135,59.320808 34.889790,59.162888 
	C34.889790,59.162888 34.433590,59.022213 34.094444,58.715149 
	C32.796589,57.991215 31.837877,57.574352 30.879164,57.157486 
	C30.879164,57.157486 30.443857,56.961346 30.326942,56.657738 
	C30.675200,55.880592 31.140371,55.407055 32.049919,54.959229 
	C37.996086,56.004154 43.497871,57.023369 49.245125,58.128628 
	C50.335930,58.156376 51.181267,58.098080 52.362343,58.097370 
	C53.781040,58.483646 54.864002,58.812340 56.167290,59.387589 
	C58.527813,60.297012 60.639141,61.383644 62.814392,61.531803 
	C66.949005,61.813412 71.291412,62.296459 75.242332,61.380062 
	C85.005424,59.115555 94.734505,56.509865 104.205093,53.250492 
	C110.057350,51.236389 115.410652,47.772518 121.216064,45.101295 
	C121.918365,45.494934 122.392555,45.746769 122.866737,45.998604 
z"/>
<path fill="#4D795C" opacity="1.000000" stroke="none" 
	d="
M169.531342,1.000001 
	C170.454712,1.943220 170.909424,2.886439 171.541565,4.247752 
	C171.482956,5.117820 171.246918,5.569793 171.014725,6.006556 
	C171.018570,5.991345 171.043533,6.010610 170.668335,6.067340 
	C167.186234,6.429132 164.079346,6.734193 160.583588,6.945184 
	C157.763641,6.400663 155.337662,5.606528 152.900406,5.570262 
	C147.587509,5.491206 142.268845,5.797977 136.719055,5.955699 
	C136.485565,5.964314 136.018463,5.977956 135.663086,5.840362 
	C133.254654,5.491252 131.201599,5.279737 129.148544,5.068222 
	C130.858414,3.958333 132.568268,2.848444 134.139069,1.369277 
	C145.687561,1.000000 157.375122,1.000000 169.531342,1.000001 
z"/>
<path fill="#517D5F" opacity="1.000000" stroke="none" 
	d="
M197.000000,19.666668 
	C196.761627,19.336178 196.523239,18.672354 196.642426,18.004265 
	C197.000000,18.444445 197.000000,18.888889 197.000000,19.666668 
z"/>
<path fill="#3F7750" opacity="1.000000" stroke="none" 
	d="
M136.952545,5.947084 
	C142.268845,5.797977 147.587509,5.491206 152.900406,5.570262 
	C155.337662,5.606528 157.763641,6.400663 160.700195,7.251497 
	C160.916763,10.403192 160.627899,13.154502 160.379562,15.519705 
	C162.929398,17.137962 165.965012,19.064508 168.672607,21.038067 
	C167.282272,21.730408 166.219955,22.375732 164.863220,23.225069 
	C163.520508,23.899284 162.476074,24.765278 161.423233,24.775648 
	C154.434982,24.844467 148.857452,28.248259 143.360672,31.991356 
	C142.446274,32.614029 141.203323,32.754230 139.870758,32.887184 
	C138.754044,31.440159 137.878769,30.223333 137.352097,28.935719 
	C141.858765,27.524820 141.647568,24.352020 141.251343,20.750412 
	C144.140152,19.840113 146.778717,19.176035 149.417267,18.511959 
	C149.042053,18.260365 148.666824,18.008770 148.291595,17.757174 
	C149.157120,16.288326 149.892303,14.718379 150.928864,13.382219 
	C151.776917,12.289057 153.044037,11.524713 153.937988,10.457623 
	C154.025497,10.353178 152.765198,8.539153 152.185776,8.569624 
	C150.686508,8.648469 149.047592,9.031092 147.768875,9.799235 
	C143.636246,12.281797 139.668930,15.038699 135.555191,17.554647 
	C135.058319,17.858524 134.059784,17.252094 133.286118,17.210804 
	C131.193283,17.099119 129.096329,17.064625 126.927216,16.642319 
	C126.235619,14.188884 125.617813,12.092643 124.990822,9.646198 
	C124.967560,8.829079 124.953476,8.362163 124.939400,7.895247 
	C124.939400,7.895247 124.954773,7.953945 125.267014,7.905772 
	C126.706924,7.193245 127.834587,6.528891 128.962250,5.864534 
	C128.962250,5.864531 129.030411,5.459590 129.089478,5.263906 
	C131.201599,5.279737 133.254654,5.491252 135.600037,6.123635 
	C135.892365,7.562624 135.892365,8.580743 135.892365,9.598863 
	C136.445007,9.546050 136.997635,9.493237 137.550278,9.440425 
	C137.351044,8.275978 137.151794,7.111531 136.952545,5.947084 
M154.041245,20.030458 
	C154.041245,20.030458 154.000458,20.062405 154.041245,20.030458 
z"/>
<path fill="#47775A" opacity="1.000000" stroke="none" 
	d="
M38.925858,36.852737 
	C52.571922,31.534367 67.563629,29.936481 80.529160,22.289204 
	C80.540077,24.748831 80.253189,26.832399 79.625710,28.896076 
	C77.055511,29.610817 74.709457,30.108330 72.622360,31.133194 
	C69.100060,32.862812 65.919571,35.463711 62.256985,36.675709 
	C59.448776,37.604988 56.119293,36.959007 52.744453,36.916817 
	C51.263145,37.511757 50.059036,38.203506 48.648766,38.903824 
	C48.442600,38.912388 48.031021,38.942505 47.828243,38.932796 
	C47.080383,39.258751 46.535297,39.594414 45.964561,39.924805 
	C45.938908,39.919537 45.887180,39.927765 45.566788,39.791306 
	C43.165245,39.108662 41.084099,38.562477 38.983894,37.725388 
	C38.951839,37.240570 38.938847,37.046654 38.925858,36.852737 
z"/>
<path fill="#3E774F" opacity="1.000000" stroke="none" 
	d="
M97.057701,15.111073 
	C97.057701,15.111073 97.423813,14.987291 98.007050,14.926088 
	C101.077049,14.248752 103.563828,13.632618 106.378067,13.019503 
	C107.142181,13.024723 107.578812,13.026926 108.001648,13.409836 
	C108.073715,20.270519 104.090294,19.149076 99.774544,17.374985 
	C101.732971,20.202660 103.297668,22.461851 104.862366,24.721045 
	C104.498764,24.950041 104.135155,25.179039 103.771545,25.408035 
	C98.842590,24.272758 93.913628,23.137482 88.849258,21.761494 
	C88.476646,21.022224 88.239449,20.523668 88.280663,19.845886 
	C91.391953,18.148132 94.224823,16.629602 97.057701,15.111073 
z"/>
<path fill="#5D8168" opacity="1.000000" stroke="none" 
	d="
M17.852921,49.160713 
	C11.716959,45.284908 7.520126,39.709942 3.409234,34.059666 
	C3.675919,33.721210 3.942604,33.382759 4.209290,33.044304 
	C8.184368,34.386700 12.159447,35.729095 16.525085,37.267975 
	C16.915648,37.464455 16.946644,37.718739 16.700911,37.773277 
	C16.291109,37.862362 16.127039,37.896912 15.709126,38.015102 
	C15.450130,39.552132 15.141957,41.087547 15.508156,42.440422 
	C16.114914,44.682007 17.155767,46.806095 17.973537,49.024940 
	C17.933334,49.070202 17.852921,49.160713 17.852921,49.160713 
z"/>
<path fill="#407453" opacity="1.000000" stroke="none" 
	d="
M88.002251,20.025112 
	C88.239449,20.523668 88.476646,21.022224 88.722153,22.054827 
	C85.809067,24.697905 82.887680,26.806936 79.966293,28.915966 
	C80.253189,26.832399 80.540077,24.748831 80.906593,22.280270 
	C82.776787,20.683968 84.567352,19.472658 86.785828,18.359415 
	C87.476570,18.980024 87.739410,19.502567 88.002251,20.025112 
z"/>
<path fill="#467353" opacity="1.000000" stroke="none" 
	d="
M108.015450,13.029128 
	C107.578812,13.026926 107.142181,13.024723 106.358673,12.803128 
	C106.011803,12.583735 105.975876,12.151199 105.975876,12.151199 
	C106.659088,11.497363 107.267197,10.390344 108.037613,10.262652 
	C113.355080,9.381315 118.706390,8.704262 124.493118,7.928398 
	C124.953476,8.362163 124.967560,8.829079 124.608276,9.619598 
	C119.334755,8.501140 116.006615,10.856105 113.600815,14.615082 
	C111.481544,14.013319 109.748497,13.521223 108.015450,13.029128 
z"/>
<path fill="#5D8168" opacity="1.000000" stroke="none" 
	d="
M31.605543,54.933517 
	C31.140371,55.407055 30.675200,55.880592 30.100691,56.581573 
	C26.052219,54.465660 22.113085,52.122303 18.013435,49.469830 
	C17.852921,49.160713 17.933334,49.070202 18.290035,48.916656 
	C21.405066,49.546341 24.163391,50.329578 27.124981,51.142624 
	C27.328243,51.172436 27.738651,51.191982 27.895794,51.485317 
	C29.331608,52.580627 30.610277,53.382599 31.818390,54.371918 
	C31.747829,54.559265 31.605543,54.933517 31.605543,54.933517 
z"/>
<path fill="#44775B" opacity="1.000000" stroke="none" 
	d="
M16.946644,37.718739 
	C16.946644,37.718739 16.915648,37.464455 16.913338,37.336342 
	C23.942272,37.125736 30.973515,37.043243 38.465309,36.906746 
	C38.938847,37.046654 38.951839,37.240570 38.625160,37.857513 
	C32.187508,38.523186 26.089529,38.765835 19.628078,39.003574 
	C18.537388,38.992355 17.810169,38.986046 17.047836,38.664600 
	C16.990696,38.139221 16.968670,37.928978 16.946644,37.718739 
z"/>
<path fill="#53795F" opacity="1.000000" stroke="none" 
	d="
M88.280663,19.845886 
	C87.739410,19.502567 87.476570,18.980024 87.075546,18.200443 
	C89.412010,15.024903 92.670876,14.596386 96.628876,15.068617 
	C94.224823,16.629602 91.391953,18.148132 88.280663,19.845886 
z"/>
<path fill="#53795F" opacity="1.000000" stroke="none" 
	d="
M105.574615,12.114119 
	C105.975876,12.151199 106.011803,12.583735 106.031204,12.800110 
	C103.563828,13.632618 101.077049,14.248752 98.199860,14.913487 
	C100.264084,14.000405 102.718719,13.038722 105.574615,12.114119 
z"/>
<path fill="#467353" opacity="1.000000" stroke="none" 
	d="
M128.587540,5.915442 
	C127.834587,6.528891 126.706924,7.193245 125.237167,7.900303 
	C126.001007,7.284121 127.106918,6.625235 128.587540,5.915442 
z"/>
<path fill="#5D8168" opacity="1.000000" stroke="none" 
	d="
M31.005535,57.465626 
	C31.837877,57.574352 32.796589,57.991215 33.868923,58.636955 
	C33.032330,58.501804 32.082119,58.137783 31.005535,57.465626 
z"/>
<path fill="#5D8168" opacity="1.000000" stroke="none" 
	d="
M34.996948,59.384781 
	C35.206135,59.320808 35.522484,59.478729 35.912239,59.757484 
	C35.985645,59.878323 35.493862,59.908092 35.493862,59.908092 
	C35.493862,59.908092 35.104111,59.606678 34.996948,59.384781 
z"/>
<path fill="#517D5F" opacity="1.000000" stroke="none" 
	d="
M187.122101,10.983475 
	C189.244049,13.292958 191.403854,15.569043 193.477814,17.920835 
	C195.790192,20.542976 193.424164,21.521038 191.628677,21.862186 
	C188.120636,22.528725 184.513580,22.674297 180.147736,22.937696 
	C176.578568,22.563652 173.809174,22.287468 171.242340,21.737728 
	C172.429779,18.995760 174.372345,16.447903 174.175690,14.077516 
	C173.878784,10.498590 175.403229,10.081671 178.359741,10.251015 
	C181.481125,10.617368 184.301605,10.800423 187.122101,10.983475 
z"/>
<path fill="#567C5F" opacity="1.000000" stroke="none" 
	d="
M171.039795,22.011288 
	C173.809174,22.287468 176.578568,22.563652 179.721802,22.994474 
	C176.164551,24.427889 172.206955,25.631271 168.308029,27.001583 
	C160.843521,29.625042 153.430344,32.394875 145.961197,35.004738 
	C140.762070,36.821411 135.505081,38.472527 129.791016,40.254829 
	C129.308105,40.312065 128.997650,39.997284 129.197601,39.772911 
	C130.271301,38.718159 131.145065,37.887779 132.359222,36.990982 
	C134.170959,35.981621 135.642288,35.038681 137.423492,34.034882 
	C138.526321,33.688477 139.319260,33.402931 140.112198,33.117386 
	C141.203323,32.754230 142.446274,32.614029 143.360672,31.991356 
	C148.857452,28.248259 154.434982,24.844467 161.423233,24.775648 
	C162.476074,24.765278 163.520508,23.899284 165.239624,23.223392 
	C166.925583,23.016354 167.940720,23.015003 169.222198,22.901623 
	C170.005615,22.530157 170.522705,22.270723 171.039795,22.011288 
z"/>
<path fill="#64846C" opacity="1.000000" stroke="none" 
	d="
M186.949783,10.666800 
	C184.301605,10.800423 181.481125,10.617368 178.178772,9.951866 
	C175.479111,8.316483 173.261322,7.163547 171.043533,6.010611 
	C171.043533,6.010610 171.018570,5.991345 171.316132,5.954360 
	C172.416977,5.367224 173.220291,4.817073 174.023590,4.266924 
	C178.274887,6.294658 182.526169,8.322390 186.949783,10.666800 
z"/>
<path fill="#4E7658" opacity="1.000000" stroke="none" 
	d="
M123.063217,45.703415 
	C122.392555,45.746769 121.918365,45.494934 121.347099,44.839905 
	C122.844551,43.646286 124.439087,42.855862 126.030113,42.300293 
	C126.026611,42.535156 126.004700,43.004429 126.004700,43.004429 
	C125.089699,43.805695 124.174698,44.606956 123.063217,45.703415 
z"/>
<path fill="#567C5F" opacity="1.000000" stroke="none" 
	d="
M126.343849,42.954933 
	C126.004700,43.004429 126.026611,42.535156 126.025314,42.282475 
	C126.024017,42.029793 126.023605,41.997711 126.190277,41.843334 
	C126.575470,41.479561 126.786697,41.263042 127.240654,40.907486 
	C127.992996,40.516140 128.495331,40.256714 128.997650,39.997284 
	C128.997650,39.997284 129.308105,40.312065 129.462372,40.470417 
	C128.638763,41.387661 127.660881,42.146549 126.343849,42.954933 
z"/>
<path fill="#477856" opacity="1.000000" stroke="none" 
	d="
M173.682678,4.209748 
	C173.220291,4.817073 172.416977,5.367224 171.312286,5.969571 
	C171.246918,5.569793 171.482956,5.117820 171.841217,4.441978 
	C172.422882,4.196263 172.882339,4.174418 173.682678,4.209748 
z"/>
<path fill="#387449" opacity="1.000000" stroke="none" 
	d="
M108.001648,13.409836 
	C109.748497,13.521223 111.481544,14.013319 113.600815,14.615082 
	C116.006615,10.856105 119.334755,8.501140 124.617447,9.969803 
	C125.617813,12.092643 126.235619,14.188884 126.627075,16.581472 
	C123.747002,16.432291 122.028656,16.705732 123.637352,20.064806 
	C124.040619,20.906862 123.896263,22.011183 123.750000,22.917416 
	C122.664124,23.892986 121.831825,24.946108 120.913353,26.349575 
	C120.422363,30.975639 118.278954,32.780941 115.168816,31.549555 
	C113.295143,36.150127 111.599922,40.312531 109.891647,44.506981 
	C104.844009,43.814800 100.850258,46.285526 98.776558,50.761612 
	C98.269157,51.856850 96.301010,52.275349 95.002228,53.002491 
	C95.000000,53.000000 94.995018,52.995441 94.979439,52.683296 
	C94.737549,51.450607 94.511230,50.530056 94.387291,50.025917 
	C91.511917,50.414333 88.680092,51.661274 86.533035,50.921310 
	C80.607468,48.879116 75.957184,51.506954 72.260223,54.935921 
	C68.510201,58.414112 64.998734,58.344868 60.858383,57.080681 
	C59.503563,56.667004 58.237892,55.961365 56.597347,55.242935 
	C56.317894,56.917858 56.132431,58.029446 55.946968,59.141033 
	C54.864002,58.812340 53.781040,58.483646 52.064728,57.977215 
	C50.622963,57.528397 49.814552,57.257324 49.037598,56.592430 
	C50.134819,50.359161 48.790993,44.990929 45.887180,39.927765 
	C45.887180,39.927765 45.938908,39.919537 46.226799,39.819134 
	C47.020138,39.459988 47.525581,39.201248 48.031021,38.942505 
	C48.031021,38.942505 48.442600,38.912388 48.984497,38.920208 
	C50.691479,38.289894 51.856564,37.651760 53.021648,37.013626 
	C56.119293,36.959007 59.448776,37.604988 62.256985,36.675709 
	C65.919571,35.463711 69.100060,32.862812 72.622360,31.133194 
	C74.709457,30.108330 77.055511,29.610817 79.625710,28.896076 
	C82.887680,26.806936 85.809067,24.697905 88.857559,22.295540 
	C93.913628,23.137482 98.842590,24.272758 103.771545,25.408035 
	C104.135155,25.179039 104.498764,24.950041 104.862366,24.721045 
	C103.297668,22.461851 101.732971,20.202660 99.774544,17.374985 
	C104.090294,19.149076 108.073715,20.270519 108.001648,13.409836 
z"/>
<path fill="#3D774D" opacity="1.000000" stroke="none" 
	d="
M95.004463,53.004982 
	C96.301010,52.275349 98.269157,51.856850 98.776558,50.761612 
	C100.850258,46.285526 104.844009,43.814800 109.891647,44.506981 
	C111.599922,40.312531 113.295143,36.150127 115.168816,31.549555 
	C118.278954,32.780941 120.422363,30.975639 121.193909,26.211153 
	C122.374954,24.813248 123.189270,23.904108 124.003586,22.994968 
	C123.896263,22.011183 124.040619,20.906862 123.637352,20.064806 
	C122.028656,16.705732 123.747002,16.432291 126.700859,16.938667 
	C129.096329,17.064625 131.193283,17.099119 133.286118,17.210804 
	C134.059784,17.252094 135.058319,17.858524 135.555191,17.554647 
	C139.668930,15.038699 143.636246,12.281797 147.768875,9.799235 
	C149.047592,9.031092 150.686508,8.648469 152.185776,8.569624 
	C152.765198,8.539153 154.025497,10.353178 153.937988,10.457623 
	C153.044037,11.524713 151.776917,12.289057 150.928864,13.382219 
	C149.892303,14.718379 149.157120,16.288326 148.291595,17.757174 
	C148.666824,18.008770 149.042053,18.260365 149.417267,18.511959 
	C146.778717,19.176035 144.140152,19.840113 140.990265,20.943745 
	C139.126099,23.835768 134.709030,24.891245 137.003494,29.006508 
	C137.878769,30.223333 138.754044,31.440159 139.870758,32.887184 
	C139.319260,33.402931 138.526321,33.688477 137.113281,33.907463 
	C135.654922,33.563091 134.816666,33.285278 133.772400,33.064651 
	C133.376312,33.747108 133.186203,34.372375 132.871292,35.253284 
	C132.503922,36.025085 132.261368,36.541245 132.018814,37.057400 
	C131.145065,37.887779 130.271301,38.718159 129.197601,39.772911 
	C128.495331,40.256714 127.992996,40.516140 127.073837,41.060776 
	C126.437416,41.555004 126.226280,41.772243 126.023605,41.997711 
	C126.023605,41.997711 126.024017,42.029793 126.028816,42.047615 
	C124.439087,42.855862 122.844551,43.646286 121.118988,44.698097 
	C115.410652,47.772518 110.057350,51.236389 104.205093,53.250492 
	C94.734505,56.509865 85.005424,59.115555 75.242332,61.380062 
	C71.291412,62.296459 66.949005,61.813412 62.814392,61.531803 
	C60.639141,61.383644 58.527813,60.297012 56.167294,59.387589 
	C56.132431,58.029446 56.317894,56.917858 56.597347,55.242935 
	C58.237892,55.961365 59.503563,56.667004 60.858383,57.080681 
	C64.998734,58.344868 68.510201,58.414112 72.260223,54.935921 
	C75.957184,51.506954 80.607468,48.879116 86.533035,50.921310 
	C88.680092,51.661274 91.511917,50.414333 94.387291,50.025917 
	C94.511230,50.530056 94.737549,51.450607 94.963287,52.695557 
	C94.962708,53.019962 95.004463,53.004986 95.004463,53.004982 
M122.645119,32.737045 
	C125.572266,38.254940 126.910278,33.315769 129.381134,32.117737 
	C126.629135,29.265930 124.611557,28.876284 122.645119,32.737045 
M130.197647,24.688335 
	C128.883041,25.198320 127.568420,25.708305 126.253815,26.218290 
	C126.385269,26.770956 126.516731,27.323622 126.648193,27.876286 
	C128.170288,27.713167 129.692383,27.550047 131.214478,27.386929 
	C131.053772,26.506754 130.893066,25.626579 130.197647,24.688335 
z"/>
<path fill="#39774E" opacity="1.000000" stroke="none" 
	d="
M45.566788,39.791306 
	C48.790993,44.990929 50.134819,50.359161 49.035675,56.856590 
	C49.001415,57.690578 49.000538,57.866581 48.999660,58.042583 
	C43.497871,57.023369 37.996086,56.004154 32.049919,54.959229 
	C31.605543,54.933517 31.747829,54.559265 31.715435,54.036118 
	C30.368242,52.739307 29.053446,51.965645 27.738651,51.191982 
	C27.738651,51.191982 27.328243,51.172436 27.109623,50.744904 
	C27.491322,44.778393 22.019022,42.944271 19.991552,39.008484 
	C26.089529,38.765835 32.187508,38.523186 38.644218,38.148415 
	C41.084099,38.562477 43.165245,39.108662 45.566788,39.791306 
z"/>
<path fill="#3D774D" opacity="1.000000" stroke="none" 
	d="
M49.245125,58.128628 
	C49.000538,57.866581 49.001415,57.690578 49.004215,57.250412 
	C49.814552,57.257324 50.622963,57.528397 51.728989,57.919628 
	C51.181267,58.098080 50.335930,58.156376 49.245125,58.128628 
z"/>
<path fill="#477856" opacity="1.000000" stroke="none" 
	d="
M170.668335,6.067340 
	C173.261322,7.163547 175.479111,8.316483 177.877884,9.768568 
	C175.403229,10.081671 173.878784,10.498590 174.175690,14.077516 
	C174.372345,16.447903 172.429779,18.995760 171.242340,21.737728 
	C170.522705,22.270723 170.005615,22.530157 169.231094,22.564411 
	C168.982651,21.889837 168.991623,21.440447 169.000610,20.991055 
	C165.965012,19.064508 162.929398,17.137962 160.379562,15.519705 
	C160.627899,13.154502 160.916763,10.403192 161.089050,7.345568 
	C164.079346,6.734193 167.186234,6.429132 170.668335,6.067340 
z"/>
<path fill="#3D774D" opacity="1.000000" stroke="none" 
	d="
M136.719055,5.955699 
	C137.151794,7.111531 137.351044,8.275978 137.550278,9.440425 
	C136.997635,9.493237 136.445007,9.546050 135.892365,9.598863 
	C135.892365,8.580743 135.892365,7.562624 135.955414,6.261230 
	C136.018463,5.977956 136.485565,5.964314 136.719055,5.955699 
z"/>
<path fill="#387449" opacity="1.000000" stroke="none" 
	d="
M137.352097,28.935719 
	C134.709030,24.891245 139.126099,23.835768 140.739990,21.189968 
	C141.647568,24.352020 141.858765,27.524820 137.352097,28.935719 
z"/>
<path fill="#517D5F" opacity="1.000000" stroke="none" 
	d="
M168.672607,21.038067 
	C168.991623,21.440447 168.982651,21.889837 168.964767,22.676441 
	C167.940720,23.015003 166.925583,23.016354 165.534027,23.019381 
	C166.219955,22.375732 167.282272,21.730408 168.672607,21.038067 
z"/>
<path fill="#3D774D" opacity="1.000000" stroke="none" 
	d="
M154.020844,20.046432 
	C154.000458,20.062405 154.041245,20.030458 154.020844,20.046432 
z"/>
<path fill="#39774E" opacity="1.000000" stroke="none" 
	d="
M52.744453,36.916817 
	C51.856564,37.651760 50.691479,38.289894 49.190659,38.911644 
	C50.059036,38.203506 51.263145,37.511757 52.744453,36.916817 
z"/>
<path fill="#39774E" opacity="1.000000" stroke="none" 
	d="
M47.828243,38.932800 
	C47.525581,39.201248 47.020138,39.459988 46.252453,39.824402 
	C46.535297,39.594414 47.080383,39.258751 47.828243,38.932800 
z"/>
<path fill="#437855" opacity="1.000000" stroke="none" 
	d="
M19.628078,39.003578 
	C22.019022,42.944271 27.491322,44.778393 26.906361,50.715088 
	C24.163391,50.329578 21.405066,49.546341 18.330238,48.871395 
	C17.155767,46.806095 16.114914,44.682007 15.508156,42.440422 
	C15.141957,41.087547 15.450130,39.552132 15.739337,38.176514 
	C16.376579,38.496101 16.729765,38.737919 17.082951,38.979736 
	C17.810169,38.986046 18.537388,38.992355 19.628078,39.003578 
z"/>
<path fill="#39774E" opacity="1.000000" stroke="none" 
	d="
M17.047836,38.664597 
	C16.729765,38.737919 16.376579,38.496101 15.993182,38.092873 
	C16.127039,37.896912 16.291109,37.862362 16.700911,37.773277 
	C16.968670,37.928978 16.990696,38.139221 17.047836,38.664597 
z"/>
<path fill="#437855" opacity="1.000000" stroke="none" 
	d="
M27.895794,51.485317 
	C29.053446,51.965645 30.368242,52.739307 31.785994,53.848770 
	C30.610277,53.382599 29.331608,52.580627 27.895794,51.485317 
z"/>
<path fill="#3F7750" opacity="1.000000" stroke="none" 
	d="
M133.978409,33.007469 
	C134.816666,33.285278 135.654922,33.563091 136.803406,33.968323 
	C135.642288,35.038681 134.170959,35.981621 132.359222,36.990982 
	C132.261368,36.541245 132.503922,36.025085 133.008270,35.011543 
	C133.506165,34.011932 133.742294,33.509701 133.978409,33.007469 
z"/>
<path fill="#4E7658" opacity="1.000000" stroke="none" 
	d="
M126.190277,41.843334 
	C126.226280,41.772243 126.437416,41.555004 126.823822,41.192696 
	C126.786697,41.263042 126.575470,41.479561 126.190277,41.843334 
z"/>
<path fill="#3F7750" opacity="1.000000" stroke="none" 
	d="
M123.750000,22.917416 
	C123.189270,23.904108 122.374954,24.813248 121.280090,25.860809 
	C121.831825,24.946108 122.664124,23.892986 123.750000,22.917416 
z"/>
<path fill="#387449" opacity="1.000000" stroke="none" 
	d="
M122.724037,32.442009 
	C124.611557,28.876284 126.629135,29.265930 129.381134,32.117737 
	C126.910278,33.315769 125.572266,38.254940 122.724037,32.442009 
z"/>
<path fill="#387449" opacity="1.000000" stroke="none" 
	d="
M130.464996,24.717369 
	C130.893066,25.626579 131.053772,26.506754 131.214478,27.386929 
	C129.692383,27.550047 128.170288,27.713167 126.648193,27.876286 
	C126.516731,27.323622 126.385269,26.770956 126.253815,26.218290 
	C127.568420,25.708305 128.883041,25.198320 130.464996,24.717369 
z"/>
<path fill="#387449" opacity="1.000000" stroke="none" 
	d="
M133.772400,33.064651 
	C133.742294,33.509701 133.506165,34.011932 133.133072,34.755905 
	C133.186203,34.372375 133.376312,33.747108 133.772400,33.064651 
z"/>
<path fill="#387449" opacity="1.000000" stroke="none" 
	d="
M95.002228,53.002495 
	C95.004463,53.004986 94.962708,53.019962 94.978867,53.007702 
	C94.995018,52.995441 95.000000,53.000000 95.002228,53.002495 
z"/>
</svg>